<?xml version="1.0" encoding="utf-8"?>
<!-- Generator: Adobe Illustrator 17.1.0, SVG Export Plug-In . SVG Version: 6.00 Build 0)  -->
<!DOCTYPE svg PUBLIC "-//W3C//DTD SVG 1.1//EN" "http://www.w3.org/Graphics/SVG/1.1/DTD/svg11.dtd">
<svg version="1.1" xmlns="http://www.w3.org/2000/svg" xmlns:xlink="http://www.w3.org/1999/xlink" x="0px" y="0px"
	 viewBox="0 0 336.2 216.3" enable-background="new 0 0 336.2 216.3" xml:space="preserve">
<g id="Background">
</g>
<g id="Objects">
	<g>
		<path fill="#FFFFFF" d="M210,142.5c3.5-2.7-4.1-3.4-6.3-1.7c-7.7,6-16.2,10.9-24.9,15.5c-0.3-0.5-0.5-1-0.8-1.5
			c1.8-4,3.9-8,5.9-12c0.8-1.6-6.7-0.9-7.6,1c-0.7,1.4-1.4,2.8-2.1,4.1c-1.1-1.8-2.1-3.7-3.2-5.5c-1.5-2.6-9.1-0.6-7.7,1.8
			c2.3,4,4.6,8.1,6.9,12.2c-0.3,0.6-0.5,1.3-0.8,1.9c-3.5-1.1-7-2.2-10.5-3.2c-2.1-0.6-7.7,2.1-7.2,2.2c5.3,1.6,10.6,3.3,15.8,4.9
			c-4.6,2.4-9.2,4.7-13.7,7.2c-4.4,2.4,2.1,4.2,5,2.7c2.5-1.4,5-2.7,7.5-4c-1,4.2-1.4,8.5-0.9,13c0.2,1.7,7.9,0.4,7.7-1.8
			c-0.6-5.1,0.1-10,1.5-14.8c1.7,3.5,3.3,7,4.8,10.5c1.1,2.8,8.7,0.9,7.7-1.8c-0.8-2-1.7-4.1-2.7-6.1c4.4,1.2,8.9,2.2,13.5,3.1
			c1.7,0.3,8.4-2.1,6.3-2.5c-7.6-1.3-15-3.3-22.3-5.6c-0.3-0.6-0.6-1.2-0.9-1.8C191.1,155.1,201.1,149.5,210,142.5z"/>
		<path fill="#FFFFFF" d="M189.6,134.5c1.7-1.3-1.9-1.6-3-0.8c-3.6,2.8-7.7,5.2-11.9,7.4c-0.1-0.2-0.3-0.5-0.4-0.7
			c0.9-1.9,1.8-3.8,2.8-5.7c0.4-0.8-3.2-0.4-3.6,0.5c-0.3,0.7-0.7,1.3-1,2c-0.5-0.9-1-1.8-1.5-2.6c-0.7-1.3-4.3-0.3-3.7,0.8
			c1.1,1.9,2.2,3.8,3.3,5.8c-0.1,0.3-0.3,0.6-0.4,0.9c-1.7-0.5-3.3-1-5-1.5c-1-0.3-3.7,1-3.4,1c2.5,0.7,5,1.6,7.5,2.3
			c-2.2,1.1-4.4,2.2-6.5,3.4c-2.1,1.1,1,2,2.4,1.3c1.2-0.7,2.4-1.3,3.6-1.9c-0.5,2-0.7,4-0.4,6.2c0.1,0.8,3.8,0.2,3.6-0.8
			c-0.3-2.4,0.1-4.8,0.7-7c0.8,1.6,1.6,3.3,2.3,5c0.5,1.3,4.2,0.4,3.6-0.8c-0.4-1-0.8-1.9-1.3-2.9c2.1,0.6,4.3,1.1,6.4,1.5
			c0.8,0.1,4-1,3-1.2c-3.6-0.6-7.1-1.6-10.6-2.6c-0.1-0.3-0.3-0.6-0.4-0.9C180.6,140.5,185.4,137.8,189.6,134.5z"/>
		<path fill="#FFFFFF" d="M216.9,189.5c-3.2,0-5.7-1.8-5.7-4.1c0-2.3,2.6-4.1,5.7-4.1c3.1,0,5.7,1.8,5.7,4.1
			C222.6,187.7,220,189.5,216.9,189.5z"/>
		<path fill="#FFFFFF" d="M180.6,111c-3.2,0-5.7-1.8-5.7-4.1c0-2.3,2.6-4.1,5.7-4.1c3.1,0,5.7,1.8,5.7,4.1
			C186.3,109.2,183.8,111,180.6,111z"/>
		<path fill="#FFFFFF" d="M192.4,139.7c-3.2,0-5.7-1.8-5.7-4.1c0-2.3,2.6-4.1,5.7-4.1c3.1,0,5.7,1.8,5.7,4.1
			C198.1,137.8,195.6,139.7,192.4,139.7z"/>
		<path fill="#FFFFFF" d="M111,171.7c-3.1,0-5.7-1.8-5.7-4.1c0-2.3,2.6-4.1,5.7-4.1c3.1,0,5.7,1.8,5.7,4.1
			C116.7,169.8,114.1,171.7,111,171.7z"/>
		<path fill="#FFFFFF" d="M157,183.1c-2.2,0-3.9-1.3-3.9-2.8c0-1.5,1.8-2.8,3.9-2.8c2.2,0,3.9,1.3,3.9,2.8
			C160.9,181.9,159.1,183.1,157,183.1z"/>
		<path fill="#FFFFFF" d="M136.9,133.7c-2.2,0-3.9-1.3-3.9-2.8c0-1.5,1.8-2.8,3.9-2.8c2.2,0,3.9,1.3,3.9,2.8
			C140.8,132.4,139.1,133.7,136.9,133.7z"/>
		<path fill="#FFFFFF" d="M103,133.7c-2.2,0-3.9-1.3-3.9-2.8c0-1.5,1.7-2.8,3.9-2.8c2.2,0,3.9,1.3,3.9,2.8
			C106.9,132.4,105.2,133.7,103,133.7z"/>
		<path fill="#FFFFFF" d="M155.4,95.1c-2.2,0-3.9-1.3-3.9-2.8c0-1.6,1.8-2.8,3.9-2.8c2.2,0,3.9,1.3,3.9,2.8
			C159.3,93.8,157.6,95.1,155.4,95.1z"/>
		<polygon fill="#E55C51" points="121.1,206.5 115.3,189 97.1,191.1 96,172.8 77.8,170.1 81.5,152.1 64.7,144.8 72.9,128.3 
			58.5,116.9 70.7,103.2 59.8,88.4 75.2,78.3 68.4,61.2 85.8,55.5 83.7,37.2 102.1,36.1 104.8,17.9 122.8,21.7 130.1,4.8 146.5,13 
			157.9,-1.4 171.7,10.9 186.4,-0.1 196.5,15.3 213.6,8.5 219.4,26 237.7,23.9 238.7,42.2 256.9,44.9 253.2,62.9 270,70.2 
			261.8,86.7 276.2,98.1 264,111.8 274.9,126.6 259.6,136.7 266.3,153.8 248.9,159.5 251,177.8 232.6,178.9 229.9,197 211.9,193.3 
			204.6,210.2 188.2,201.9 176.8,216.3 163,204.1 148.3,215 138.2,199.7 		"/>
		<g>
			<polygon fill="#E55C51" points="326.6,146.8 326.6,140.7 319.8,135.3 319.9,146.8 			"/>
			<polygon fill="#E55C51" points="317.4,146.8 317.3,133.3 310.8,128.1 310.8,146.8 			"/>
			<polygon fill="#E55C51" points="334.2,146.8 329.1,142.7 329.1,146.8 			"/>
			<path fill="#E55C51" d="M222.3,95.9l3.8,28c0.3-0.1,0.6-0.1,0.8-0.1l0-27.8h2.5l0,27.5c0,0,0.1,0,0.1,0c2.2,0,4.4,0.5,6.4,1.3
				l0-28.8h2.5l0,30.2c2.8,1.8,5.1,4.4,6.5,7.4l0-37.6h2.5l0,50.8h6.5l0-50.8h2.5l0,50.8h6.5l0-50.8h2.5l0.1,50.8h6.5l0-50.8l2.5,0
				l0,50.8h6.5l0-50.8h2.5l0.1,50.8h6.5l-0.1-50.8h2.5l0,50.8h6.5l0-50.9h2.5l0,50.9h6.5l0-20.7l-5.9-4.7l5.9-4.4l0-21h2.5l0,19.1
				l6.5-4.9l0-14.2l2.5,0l0,12.3l6.8-5.1l0-7.2l2.5,0v5.3l6.5-4.9v-0.4h0.5l0.1,0H222.3z"/>
		</g>
		<g>
			<polygon fill="#E55C51" points="9.5,120.4 9.6,114.3 16.3,108.9 16.3,120.4 			"/>
			<polygon fill="#E55C51" points="18.8,120.4 18.8,106.9 25.4,101.7 25.4,120.4 			"/>
			<polygon fill="#E55C51" points="2,120.4 7,116.4 7,120.4 			"/>
			<path fill="#E55C51" d="M87.6,75.7c0-2.1,0.4-4,1.1-5.9v-0.2h0.1c0,0,0-0.1,0-0.1H0l0.1,0h0.5v0.4l6.5,4.9v-5.3h2.5v7.2l6.8,5.1
				l0-12.3l2.5,0l0,14.2l6.5,4.9l0-19.1h2.5v21l5.9,4.4l-5.9,4.7l0,20.7h6.5l0-50.9h2.5l0,50.9h6.5l0-50.8H46l0,50.8h6.5l0-50.8H55
				l0,50.8h6.5l0-50.8l2.5,0l0,50.8h6.5l0.1-50.8h2.5l0,50.8h6.5l0.1-50.8h2.5l0,50.8h6.5l0-38.9C88,79.7,87.6,77.7,87.6,75.7z"/>
			<path fill="#E55C51" d="M91.1,86l0,34.5h6.5l0-29.3C95.1,90,92.9,88.2,91.1,86z"/>
			<path fill="#E55C51" d="M104.5,92.6c-1.5,0-3-0.2-4.4-0.6l0,28.4h6.5l0-27.9C106,92.6,105.3,92.6,104.5,92.6z"/>
			<path fill="#E55C51" d="M109.2,91.9l0,11.8l1.7-12.4C110.3,91.6,109.8,91.8,109.2,91.9z"/>
		</g>
		<polygon fill="#E55C51" points="330.1,144.6 298,122 330.1,98 228.8,98 222,144.6 		"/>
		<polygon fill="#E55C51" points="5.6,71.7 37.7,94.3 5.6,118.3 106.9,118.3 113.8,71.7 		"/>
		<path fill="#FFFFFF" d="M239.9,147.8c-0.1,0.1-0.1,0.1-0.2,0.2l53.9-15.5h-46.8c0,0.4,0.1,0.8,0.1,1.2
			C246.8,139.4,244.1,144.5,239.9,147.8z"/>
		<path fill="#E55C51" d="M255.4,106.8c0,48.6-39.4,88-88,88c-48.6,0-88-39.4-88-88c0-48.6,39.4-88,88-88
			C216,18.8,255.4,58.2,255.4,106.8z"/>
		<g>
			<g>
				<path fill="#645B55" d="M154.1,19.2c-0.8,0.4-1.5,0.8-2.3,1.2l-1.9,2.8l6,8.5l6.1-8.5l-2.5-3.5
					C157.6,19.5,155.9,19.3,154.1,19.2z"/>
			</g>
			<g>
				<path fill="#645B55" d="M175.1,21.7l-1,1.5l6,8.5l5.5-7.7C182.1,23.1,178.6,22.3,175.1,21.7z"/>
			</g>
			<g>
				<polygon fill="#645B55" points="101.4,61.6 107.4,53.1 113.5,61.6 107.4,70.2 				"/>
			</g>
			<g>
				<polygon fill="#645B55" points="125.6,61.6 131.6,53.1 137.7,61.6 131.6,70.2 				"/>
			</g>
			<g>
				<polygon fill="#645B55" points="149.8,61.6 155.8,53.1 162,61.6 155.8,70.2 				"/>
			</g>
			<g>
				<polygon fill="#645B55" points="174.1,61.6 180.1,53.1 186.2,61.6 180.1,70.2 				"/>
			</g>
			<g>
				<polygon fill="#645B55" points="198.3,61.6 204.3,53.1 210.4,61.6 204.3,70.2 				"/>
			</g>
			<g>
				<polygon fill="#645B55" points="222.5,61.6 228.5,53.1 234.6,61.6 228.5,70.2 				"/>
			</g>
			<g>
				<path fill="#645B55" d="M79.6,96.7c0,0.1-0.1,0.3-0.1,0.4c-0.4,1.2-0.7,2.4-1,3.7c0.2,0.7,0.4,1.3,0.6,2l4.1,5.9l6.1-8.5
					l-6.1-8.5L79.6,96.7z"/>
			</g>
			<g>
				<polygon fill="#645B55" points="101.4,100.1 107.4,91.6 113.5,100.1 107.4,108.6 				"/>
			</g>
			<g>
				<polygon fill="#645B55" points="125.6,100.1 131.6,91.6 137.7,100.1 131.6,108.6 				"/>
			</g>
			<g>
				<polygon fill="#645B55" points="149.8,100.1 155.8,91.6 162,100.1 155.8,108.6 				"/>
			</g>
			<g>
				<polygon fill="#645B55" points="174.1,100.1 180.1,91.6 186.2,100.1 180.1,108.6 				"/>
			</g>
			<g>
				<polygon fill="#645B55" points="198.3,100.1 204.3,91.6 210.4,100.1 204.3,108.6 				"/>
			</g>
			<g>
				<polygon fill="#645B55" points="222.5,100.1 228.5,91.6 234.6,100.1 228.5,108.6 				"/>
			</g>
			<g>
				<path fill="#645B55" d="M254.7,100.7c-0.1,1.2-0.2,2.1-0.3,3c0.3-2.8,0.7-5.5,1.1-8.3l-2.8-3.8l-6,8.5l5.7,8.1
					C253.2,105.8,254.1,103.3,254.7,100.7z"/>
			</g>
			<g>
				<polygon fill="#645B55" points="101.4,138.6 107.4,130 113.5,138.6 107.4,147.1 				"/>
			</g>
			<g>
				<polygon fill="#645B55" points="125.6,138.6 131.6,130 137.7,138.6 131.6,147.1 				"/>
			</g>
			<g>
				<polygon fill="#645B55" points="149.8,138.6 155.8,130 162,138.6 155.8,147.1 				"/>
			</g>
			<g>
				<polygon fill="#645B55" points="174.1,138.6 180.1,130 186.2,138.6 180.1,147.1 				"/>
			</g>
			<g>
				<polygon fill="#645B55" points="198.3,138.6 204.3,130 210.4,138.6 204.3,147.1 				"/>
			</g>
			<g>
				<polygon fill="#645B55" points="222.5,138.6 228.5,130 234.6,138.6 228.5,147.1 				"/>
			</g>
			<g>
				<path fill="#645B55" d="M130.5,183.4c0.7,0.3,1.5,0.5,2.2,0.8l5.1-7.1l-6.1-8.5l-6,8.5l4.3,6.2
					C130.1,183.3,130.3,183.3,130.5,183.4z"/>
			</g>
			<g>
				<polygon fill="#645B55" points="149.8,177.1 155.8,168.5 162,177.1 155.8,185.6 				"/>
			</g>
			<g>
				<polygon fill="#645B55" points="174.1,177.1 180.1,168.5 186.2,177.1 180.1,185.6 				"/>
			</g>
			<g>
				<polygon fill="#645B55" points="198.3,177.1 204.3,168.5 210.4,177.1 204.3,185.6 				"/>
			</g>
			<g>
				<path fill="#645B55" d="M230.1,170.7l-1.6-2.2l-6,8.5c1.7-1,3.4-2,5.1-3C228.4,172.9,229.2,171.8,230.1,170.7z"/>
			</g>
			<g>
				<g>
					<polygon fill="#645B55" points="167,23.1 168,21.7 169,23.1 168,24.6 					"/>
				</g>
			</g>
			<g>
				<g>
					<polygon fill="#645B55" points="98.4,55.2 99.4,53.8 100.4,55.2 99.4,56.6 					"/>
				</g>
				<g>
					<polygon fill="#645B55" points="96.4,58.4 97.4,57 98.4,58.4 97.4,59.8 					"/>
				</g>
				<g>
					<polygon fill="#645B55" points="94.3,61.6 95.3,60.2 96.4,61.6 95.3,63 					"/>
				</g>
			</g>
			<g>
				<path fill="#645B55" d="M113.5,42.4l6,8.5l6.1-8.5l-5.7-8c-0.4,0.2-0.7,0.3-1.1,0.4L113.5,42.4z"/>
			</g>
			<g>
				<g>
					<polygon fill="#645B55" points="126.6,35.9 127.6,34.5 128.7,35.9 127.6,37.3 					"/>
				</g>
				<g>
					<polygon fill="#645B55" points="128.7,39.1 129.7,37.7 130.7,39.1 129.7,40.5 					"/>
				</g>
				<g>
					<polygon fill="#645B55" points="130.7,42.3 131.7,40.9 132.7,42.3 131.7,43.7 					"/>
				</g>
				<g>
					<polygon fill="#645B55" points="128.7,45.5 129.7,44.1 130.7,45.5 129.7,46.9 					"/>
				</g>
				<g>
					<polygon fill="#645B55" points="126.6,48.7 127.6,47.3 128.7,48.7 127.6,50.2 					"/>
				</g>
				<g>
					<polygon fill="#645B55" points="124.6,52 125.6,50.5 126.6,52 125.6,53.4 					"/>
				</g>
				<g>
					<polygon fill="#645B55" points="122.6,55.2 123.6,53.8 124.6,55.2 123.6,56.6 					"/>
				</g>
				<g>
					<polygon fill="#645B55" points="120.6,58.4 121.6,57 122.6,58.4 121.6,59.8 					"/>
				</g>
				<g>
					<polygon fill="#645B55" points="118.6,61.6 119.6,60.2 120.6,61.6 119.6,63 					"/>
				</g>
				<g>
					<polygon fill="#645B55" points="110.5,45.5 109.5,44.1 108.5,45.5 109.5,46.9 					"/>
				</g>
				<g>
					<polygon fill="#645B55" points="112.5,48.7 111.5,47.3 110.5,48.7 111.5,50.2 					"/>
				</g>
				<g>
					<polygon fill="#645B55" points="114.5,52 113.5,50.5 112.5,52 113.5,53.4 					"/>
				</g>
				<g>
					<polygon fill="#645B55" points="116.5,55.2 115.5,53.8 114.5,55.2 115.5,56.6 					"/>
				</g>
				<g>
					<polygon fill="#645B55" points="118.6,58.4 117.6,57 116.5,58.4 117.6,59.8 					"/>
				</g>
			</g>
			<g>
				<polygon fill="#645B55" points="137.7,42.4 143.7,33.8 149.8,42.4 143.7,50.9 				"/>
			</g>
			<g>
				<g>
					<polygon fill="#645B55" points="144.8,26.3 145.8,24.9 146.8,26.3 145.8,27.8 					"/>
				</g>
				<g>
					<polygon fill="#645B55" points="146.8,29.5 147.8,28.1 148.8,29.5 147.8,31 					"/>
				</g>
				<g>
					<polygon fill="#645B55" points="148.8,32.7 149.8,31.3 150.8,32.7 149.8,34.1 					"/>
				</g>
				<g>
					<polygon fill="#645B55" points="150.8,35.9 151.9,34.5 152.9,35.9 151.9,37.3 					"/>
				</g>
				<g>
					<polygon fill="#645B55" points="152.9,39.1 153.9,37.7 154.9,39.1 153.9,40.5 					"/>
				</g>
				<g>
					<polygon fill="#645B55" points="154.9,42.3 155.9,40.9 156.9,42.3 155.9,43.7 					"/>
				</g>
				<g>
					<polygon fill="#645B55" points="152.9,45.5 153.9,44.1 154.9,45.5 153.9,46.9 					"/>
				</g>
				<g>
					<polygon fill="#645B55" points="150.8,48.7 151.9,47.3 152.9,48.7 151.9,50.2 					"/>
				</g>
				<g>
					<polygon fill="#645B55" points="148.8,52 149.8,50.5 150.8,52 149.8,53.4 					"/>
				</g>
				<g>
					<polygon fill="#645B55" points="146.8,55.2 147.8,53.8 148.8,55.2 147.8,56.6 					"/>
				</g>
				<g>
					<polygon fill="#645B55" points="144.8,58.4 145.8,57 146.8,58.4 145.8,59.8 					"/>
				</g>
				<g>
					<polygon fill="#645B55" points="142.8,61.6 143.8,60.2 144.8,61.6 143.8,63 					"/>
				</g>
				<g>
					<polygon fill="#645B55" points="142.8,26.3 141.8,24.9 140.8,26.3 141.8,27.8 					"/>
				</g>
				<g>
					<polygon fill="#645B55" points="140.8,29.5 139.8,28.1 138.7,29.5 139.8,31 					"/>
				</g>
				<g>
					<polygon fill="#645B55" points="138.7,32.7 137.7,31.3 136.7,32.7 137.7,34.1 					"/>
				</g>
				<g>
					<polygon fill="#645B55" points="136.7,35.9 135.7,34.5 134.7,35.9 135.7,37.3 					"/>
				</g>
				<g>
					<polygon fill="#645B55" points="134.7,39.1 133.7,37.7 132.7,39.1 133.7,40.5 					"/>
				</g>
				<g>
					<polygon fill="#645B55" points="132.7,42.3 131.7,40.9 130.7,42.3 131.7,43.7 					"/>
				</g>
				<g>
					<polygon fill="#645B55" points="134.7,45.5 133.7,44.1 132.7,45.5 133.7,46.9 					"/>
				</g>
				<g>
					<polygon fill="#645B55" points="136.7,48.7 135.7,47.3 134.7,48.7 135.7,50.2 					"/>
				</g>
				<g>
					<polygon fill="#645B55" points="138.7,52 137.7,50.5 136.7,52 137.7,53.4 					"/>
				</g>
				<g>
					<polygon fill="#645B55" points="140.8,55.2 139.8,53.8 138.7,55.2 139.8,56.6 					"/>
				</g>
				<g>
					<polygon fill="#645B55" points="142.8,58.4 141.8,57 140.8,58.4 141.8,59.8 					"/>
				</g>
			</g>
			<g>
				<polygon fill="#645B55" points="161.9,42.4 168,33.8 174.1,42.4 168,50.9 				"/>
			</g>
			<g>
				<g>
					<polygon fill="#645B55" points="167,23.1 168,21.7 169,23.1 168,24.6 					"/>
				</g>
				<g>
					<polygon fill="#645B55" points="169,26.3 170,24.9 171,26.3 170,27.8 					"/>
				</g>
				<g>
					<polygon fill="#645B55" points="171,29.5 172,28.1 173.1,29.5 172,31 					"/>
				</g>
				<g>
					<polygon fill="#645B55" points="173.1,32.7 174.1,31.3 175.1,32.7 174.1,34.1 					"/>
				</g>
				<g>
					<polygon fill="#645B55" points="175.1,35.9 176.1,34.5 177.1,35.9 176.1,37.3 					"/>
				</g>
				<g>
					<polygon fill="#645B55" points="177.1,39.1 178.1,37.7 179.1,39.1 178.1,40.5 					"/>
				</g>
				<g>
					<polygon fill="#645B55" points="179.1,42.3 180.1,40.9 181.1,42.3 180.1,43.7 					"/>
				</g>
				<g>
					<polygon fill="#645B55" points="177.1,45.5 178.1,44.1 179.1,45.5 178.1,46.9 					"/>
				</g>
				<g>
					<polygon fill="#645B55" points="175.1,48.7 176.1,47.3 177.1,48.7 176.1,50.2 					"/>
				</g>
				<g>
					<polygon fill="#645B55" points="173.1,52 174.1,50.5 175.1,52 174.1,53.4 					"/>
				</g>
				<g>
					<polygon fill="#645B55" points="171,55.2 172,53.8 173.1,55.2 172,56.6 					"/>
				</g>
				<g>
					<polygon fill="#645B55" points="169,58.4 170,57 171,58.4 170,59.8 					"/>
				</g>
				<g>
					<polygon fill="#645B55" points="167,61.6 168,60.2 169,61.6 168,63 					"/>
				</g>
				<g>
					<polygon fill="#645B55" points="167,26.3 166,24.9 165,26.3 166,27.8 					"/>
				</g>
				<g>
					<polygon fill="#645B55" points="165,29.5 164,28.1 163,29.5 164,31 					"/>
				</g>
				<g>
					<polygon fill="#645B55" points="163,32.7 162,31.3 160.9,32.7 162,34.1 					"/>
				</g>
				<g>
					<polygon fill="#645B55" points="160.9,35.9 159.9,34.5 158.9,35.9 159.9,37.3 					"/>
				</g>
				<g>
					<polygon fill="#645B55" points="158.9,39.1 157.9,37.7 156.9,39.1 157.9,40.5 					"/>
				</g>
				<g>
					<polygon fill="#645B55" points="156.9,42.3 155.9,40.9 154.9,42.3 155.9,43.7 					"/>
				</g>
				<g>
					<polygon fill="#645B55" points="158.9,45.5 157.9,44.1 156.9,45.5 157.9,46.9 					"/>
				</g>
				<g>
					<polygon fill="#645B55" points="160.9,48.7 159.9,47.3 158.9,48.7 159.9,50.2 					"/>
				</g>
				<g>
					<polygon fill="#645B55" points="163,52 162,50.5 160.9,52 162,53.4 					"/>
				</g>
				<g>
					<polygon fill="#645B55" points="165,55.2 164,53.8 163,55.2 164,56.6 					"/>
				</g>
				<g>
					<polygon fill="#645B55" points="167,58.4 166,57 165,58.4 166,59.8 					"/>
				</g>
			</g>
			<g>
				<polygon fill="#645B55" points="186.2,42.4 192.2,33.8 198.3,42.4 192.2,50.9 				"/>
			</g>
			<g>
				<g>
					<polygon fill="#645B55" points="195.3,29.5 196.3,28.1 197.3,29.5 196.3,31 					"/>
				</g>
				<g>
					<polygon fill="#645B55" points="197.3,32.7 198.3,31.3 199.3,32.7 198.3,34.1 					"/>
				</g>
				<g>
					<polygon fill="#645B55" points="199.3,35.9 200.3,34.5 201.3,35.9 200.3,37.3 					"/>
				</g>
				<g>
					<polygon fill="#645B55" points="201.3,39.1 202.3,37.7 203.3,39.1 202.3,40.5 					"/>
				</g>
				<g>
					<polygon fill="#645B55" points="203.3,42.3 204.3,40.9 205.3,42.3 204.3,43.7 					"/>
				</g>
				<g>
					<polygon fill="#645B55" points="201.3,45.5 202.3,44.1 203.3,45.5 202.3,46.9 					"/>
				</g>
				<g>
					<polygon fill="#645B55" points="199.3,48.7 200.3,47.3 201.3,48.7 200.3,50.2 					"/>
				</g>
				<g>
					<polygon fill="#645B55" points="197.3,52 198.3,50.5 199.3,52 198.3,53.4 					"/>
				</g>
				<g>
					<polygon fill="#645B55" points="195.3,55.2 196.3,53.8 197.3,55.2 196.3,56.6 					"/>
				</g>
				<g>
					<polygon fill="#645B55" points="193.2,58.4 194.2,57 195.3,58.4 194.2,59.8 					"/>
				</g>
				<g>
					<polygon fill="#645B55" points="191.2,61.6 192.2,60.2 193.2,61.6 192.2,63 					"/>
				</g>
				<g>
					<polygon fill="#645B55" points="189.2,29.5 188.2,28.1 187.2,29.5 188.2,31 					"/>
				</g>
				<g>
					<polygon fill="#645B55" points="187.2,32.7 186.2,31.3 185.2,32.7 186.2,34.1 					"/>
				</g>
				<g>
					<polygon fill="#645B55" points="185.2,35.9 184.2,34.5 183.1,35.9 184.2,37.3 					"/>
				</g>
				<g>
					<polygon fill="#645B55" points="183.1,39.1 182.1,37.7 181.1,39.1 182.1,40.5 					"/>
				</g>
				<g>
					<polygon fill="#645B55" points="181.1,42.3 180.1,40.9 179.1,42.3 180.1,43.7 					"/>
				</g>
				<g>
					<polygon fill="#645B55" points="183.1,45.5 182.1,44.1 181.1,45.5 182.1,46.9 					"/>
				</g>
				<g>
					<polygon fill="#645B55" points="185.2,48.7 184.2,47.3 183.1,48.7 184.2,50.2 					"/>
				</g>
				<g>
					<polygon fill="#645B55" points="187.2,52 186.2,50.5 185.2,52 186.2,53.4 					"/>
				</g>
				<g>
					<polygon fill="#645B55" points="189.2,55.2 188.2,53.8 187.2,55.2 188.2,56.6 					"/>
				</g>
				<g>
					<polygon fill="#645B55" points="191.2,58.4 190.2,57 189.2,58.4 190.2,59.8 					"/>
				</g>
			</g>
			<g>
				<path fill="#645B55" d="M216,34.4l-5.6,8l6,8.5l6.1-8.5l-5.2-7.3C216.9,34.9,216.4,34.6,216,34.4z"/>
			</g>
			<g>
				<g>
					<polygon fill="#645B55" points="225.5,45.5 226.5,44.1 227.5,45.5 226.5,46.9 					"/>
				</g>
				<g>
					<polygon fill="#645B55" points="223.5,48.7 224.5,47.3 225.5,48.7 224.5,50.2 					"/>
				</g>
				<g>
					<polygon fill="#645B55" points="221.5,52 222.5,50.5 223.5,52 222.5,53.4 					"/>
				</g>
				<g>
					<polygon fill="#645B55" points="219.5,55.2 220.5,53.8 221.5,55.2 220.5,56.6 					"/>
				</g>
				<g>
					<polygon fill="#645B55" points="217.4,58.4 218.5,57 219.5,58.4 218.5,59.8 					"/>
				</g>
				<g>
					<polygon fill="#645B55" points="215.4,61.6 216.4,60.2 217.4,61.6 216.4,63 					"/>
				</g>
				<g>
					<polygon fill="#645B55" points="209.4,35.9 208.4,34.5 207.4,35.9 208.4,37.3 					"/>
				</g>
				<g>
					<polygon fill="#645B55" points="207.4,39.1 206.4,37.7 205.3,39.1 206.4,40.5 					"/>
				</g>
				<g>
					<polygon fill="#645B55" points="205.3,42.3 204.3,40.9 203.3,42.3 204.3,43.7 					"/>
				</g>
				<g>
					<polygon fill="#645B55" points="207.4,45.5 206.4,44.1 205.3,45.5 206.4,46.9 					"/>
				</g>
				<g>
					<polygon fill="#645B55" points="209.4,48.7 208.4,47.3 207.4,48.7 208.4,50.2 					"/>
				</g>
				<g>
					<polygon fill="#645B55" points="211.4,52 210.4,50.5 209.4,52 210.4,53.4 					"/>
				</g>
				<g>
					<polygon fill="#645B55" points="213.4,55.2 212.4,53.8 211.4,55.2 212.4,56.6 					"/>
				</g>
				<g>
					<polygon fill="#645B55" points="215.4,58.4 214.4,57 213.4,58.4 214.4,59.8 					"/>
				</g>
			</g>
			<g>
				<g>
					<polygon fill="#645B55" points="239.6,61.6 240.6,60.2 241.7,61.6 240.6,63 					"/>
				</g>
				<g>
					<polygon fill="#645B55" points="233.6,48.7 232.6,47.3 231.6,48.7 232.6,50.2 					"/>
				</g>
				<g>
					<polygon fill="#645B55" points="235.6,52 234.6,50.5 233.6,52 234.6,53.4 					"/>
				</g>
				<g>
					<polygon fill="#645B55" points="237.6,55.2 236.6,53.8 235.6,55.2 236.6,56.6 					"/>
				</g>
				<g>
					<polygon fill="#645B55" points="239.6,58.4 238.6,57 237.6,58.4 238.6,59.8 					"/>
				</g>
			</g>
			<g>
				<polygon fill="#645B55" points="89.3,80.9 95.3,72.3 101.4,80.9 95.3,89.4 				"/>
			</g>
			<g>
				<g>
					<polygon fill="#645B55" points="94.3,61.6 95.3,60.2 96.4,61.6 95.3,63 					"/>
				</g>
				<g>
					<polygon fill="#645B55" points="96.4,64.8 97.4,63.4 98.4,64.8 97.4,66.2 					"/>
				</g>
				<g>
					<polygon fill="#645B55" points="98.4,68 99.4,66.6 100.4,68 99.4,69.4 					"/>
				</g>
				<g>
					<polygon fill="#645B55" points="100.4,71.2 101.4,69.8 102.4,71.2 101.4,72.6 					"/>
				</g>
				<g>
					<polygon fill="#645B55" points="102.4,74.4 103.4,73 104.4,74.4 103.4,75.8 					"/>
				</g>
				<g>
					<polygon fill="#645B55" points="104.4,77.6 105.4,76.2 106.5,77.6 105.4,79 					"/>
				</g>
				<g>
					<polygon fill="#645B55" points="106.5,80.8 107.4,79.3 108.5,80.8 107.4,82.2 					"/>
				</g>
				<g>
					<polygon fill="#645B55" points="104.4,84 105.4,82.6 106.5,84 105.4,85.4 					"/>
				</g>
				<g>
					<polygon fill="#645B55" points="102.4,87.2 103.4,85.8 104.4,87.2 103.4,88.6 					"/>
				</g>
				<g>
					<polygon fill="#645B55" points="100.4,90.4 101.4,89 102.4,90.4 101.4,91.9 					"/>
				</g>
				<g>
					<polygon fill="#645B55" points="98.4,93.7 99.4,92.2 100.4,93.7 99.4,95.1 					"/>
				</g>
				<g>
					<polygon fill="#645B55" points="96.4,96.9 97.4,95.5 98.4,96.9 97.4,98.3 					"/>
				</g>
				<g>
					<polygon fill="#645B55" points="94.3,100.1 95.3,98.7 96.4,100.1 95.3,101.5 					"/>
				</g>
				<g>
					<polygon fill="#645B55" points="94.3,64.8 93.3,63.4 92.3,64.8 93.3,66.2 					"/>
				</g>
				<g>
					<polygon fill="#645B55" points="92.3,68 91.3,66.6 90.3,68 91.3,69.4 					"/>
				</g>
				<g>
					<polygon fill="#645B55" points="86.3,84 85.3,82.6 84.2,84 85.3,85.4 					"/>
				</g>
				<g>
					<polygon fill="#645B55" points="88.3,87.2 87.3,85.8 86.3,87.2 87.3,88.6 					"/>
				</g>
				<g>
					<polygon fill="#645B55" points="90.3,90.4 89.3,89 88.3,90.4 89.3,91.9 					"/>
				</g>
				<g>
					<polygon fill="#645B55" points="92.3,93.7 91.3,92.2 90.3,93.7 91.3,95.1 					"/>
				</g>
				<g>
					<polygon fill="#645B55" points="94.3,96.9 93.3,95.5 92.3,96.9 93.3,98.3 					"/>
				</g>
			</g>
			<g>
				<polygon fill="#645B55" points="113.5,80.9 119.5,72.3 125.6,80.9 119.5,89.4 				"/>
			</g>
			<g>
				<g>
					<polygon fill="#645B55" points="118.6,61.6 119.6,60.2 120.6,61.6 119.6,63 					"/>
				</g>
				<g>
					<polygon fill="#645B55" points="120.6,64.8 121.6,63.4 122.6,64.8 121.6,66.2 					"/>
				</g>
				<g>
					<polygon fill="#645B55" points="122.6,68 123.6,66.6 124.6,68 123.6,69.4 					"/>
				</g>
				<g>
					<polygon fill="#645B55" points="124.6,71.2 125.6,69.8 126.6,71.2 125.6,72.6 					"/>
				</g>
				<g>
					<polygon fill="#645B55" points="126.6,74.4 127.6,73 128.7,74.4 127.6,75.8 					"/>
				</g>
				<g>
					<polygon fill="#645B55" points="128.7,77.6 129.7,76.2 130.7,77.6 129.7,79 					"/>
				</g>
				<g>
					<polygon fill="#645B55" points="130.7,80.8 131.7,79.3 132.7,80.8 131.7,82.2 					"/>
				</g>
				<g>
					<polygon fill="#645B55" points="128.7,84 129.7,82.6 130.7,84 129.7,85.4 					"/>
				</g>
				<g>
					<polygon fill="#645B55" points="126.6,87.2 127.6,85.8 128.7,87.2 127.6,88.6 					"/>
				</g>
				<g>
					<polygon fill="#645B55" points="124.6,90.4 125.6,89 126.6,90.4 125.6,91.9 					"/>
				</g>
				<g>
					<polygon fill="#645B55" points="122.6,93.7 123.6,92.2 124.6,93.7 123.6,95.1 					"/>
				</g>
				<g>
					<polygon fill="#645B55" points="120.6,96.9 121.6,95.5 122.6,96.9 121.6,98.3 					"/>
				</g>
				<g>
					<polygon fill="#645B55" points="118.6,100.1 119.6,98.7 120.6,100.1 119.6,101.5 					"/>
				</g>
				<g>
					<polygon fill="#645B55" points="118.6,64.8 117.6,63.4 116.5,64.8 117.6,66.2 					"/>
				</g>
				<g>
					<polygon fill="#645B55" points="116.5,68 115.5,66.6 114.5,68 115.5,69.4 					"/>
				</g>
				<g>
					<polygon fill="#645B55" points="114.5,71.2 113.5,69.8 112.5,71.2 113.5,72.6 					"/>
				</g>
				<g>
					<polygon fill="#645B55" points="112.5,74.4 111.5,73 110.5,74.4 111.5,75.8 					"/>
				</g>
				<g>
					<polygon fill="#645B55" points="110.5,77.6 109.5,76.2 108.5,77.6 109.5,79 					"/>
				</g>
				<g>
					<polygon fill="#645B55" points="108.5,80.8 107.5,79.3 106.5,80.8 107.5,82.2 					"/>
				</g>
				<g>
					<polygon fill="#645B55" points="110.5,84 109.5,82.6 108.5,84 109.5,85.4 					"/>
				</g>
				<g>
					<polygon fill="#645B55" points="112.5,87.2 111.5,85.8 110.5,87.2 111.5,88.6 					"/>
				</g>
				<g>
					<polygon fill="#645B55" points="114.5,90.4 113.5,89 112.5,90.4 113.5,91.9 					"/>
				</g>
				<g>
					<polygon fill="#645B55" points="116.5,93.7 115.5,92.2 114.5,93.7 115.5,95.1 					"/>
				</g>
				<g>
					<polygon fill="#645B55" points="118.6,96.9 117.6,95.5 116.5,96.9 117.6,98.3 					"/>
				</g>
			</g>
			<g>
				<polygon fill="#645B55" points="137.7,80.9 143.7,72.3 149.8,80.9 143.7,89.4 				"/>
			</g>
			<g>
				<g>
					<polygon fill="#645B55" points="142.8,61.6 143.8,60.2 144.8,61.6 143.8,63 					"/>
				</g>
				<g>
					<polygon fill="#645B55" points="144.8,64.8 145.8,63.4 146.8,64.8 145.8,66.2 					"/>
				</g>
				<g>
					<polygon fill="#645B55" points="146.8,68 147.8,66.6 148.8,68 147.8,69.4 					"/>
				</g>
				<g>
					<polygon fill="#645B55" points="148.8,71.2 149.8,69.8 150.8,71.2 149.8,72.6 					"/>
				</g>
				<g>
					<polygon fill="#645B55" points="150.8,74.4 151.9,73 152.9,74.4 151.9,75.8 					"/>
				</g>
				<g>
					<polygon fill="#645B55" points="152.9,77.6 153.9,76.2 154.9,77.6 153.9,79 					"/>
				</g>
				<g>
					<polygon fill="#645B55" points="154.9,80.8 155.9,79.3 156.9,80.8 155.9,82.2 					"/>
				</g>
				<g>
					<polygon fill="#645B55" points="152.9,84 153.9,82.6 154.9,84 153.9,85.4 					"/>
				</g>
				<g>
					<polygon fill="#645B55" points="150.8,87.2 151.9,85.8 152.9,87.2 151.9,88.6 					"/>
				</g>
				<g>
					<polygon fill="#645B55" points="148.8,90.4 149.8,89 150.8,90.4 149.8,91.9 					"/>
				</g>
				<g>
					<polygon fill="#645B55" points="146.8,93.7 147.8,92.2 148.8,93.7 147.8,95.1 					"/>
				</g>
				<g>
					<polygon fill="#645B55" points="144.8,96.9 145.8,95.5 146.8,96.9 145.8,98.3 					"/>
				</g>
				<g>
					<polygon fill="#645B55" points="142.8,100.1 143.8,98.7 144.8,100.1 143.8,101.5 					"/>
				</g>
				<g>
					<polygon fill="#645B55" points="142.8,64.8 141.8,63.4 140.8,64.8 141.8,66.2 					"/>
				</g>
				<g>
					<polygon fill="#645B55" points="140.8,68 139.8,66.6 138.7,68 139.8,69.4 					"/>
				</g>
				<g>
					<polygon fill="#645B55" points="138.7,71.2 137.7,69.8 136.7,71.2 137.7,72.6 					"/>
				</g>
				<g>
					<polygon fill="#645B55" points="136.7,74.4 135.7,73 134.7,74.4 135.7,75.8 					"/>
				</g>
				<g>
					<polygon fill="#645B55" points="134.7,77.6 133.7,76.2 132.7,77.6 133.7,79 					"/>
				</g>
				<g>
					<polygon fill="#645B55" points="132.7,80.8 131.7,79.3 130.7,80.8 131.7,82.2 					"/>
				</g>
				<g>
					<polygon fill="#645B55" points="134.7,84 133.7,82.6 132.7,84 133.7,85.4 					"/>
				</g>
				<g>
					<polygon fill="#645B55" points="136.7,87.2 135.7,85.8 134.7,87.2 135.7,88.6 					"/>
				</g>
				<g>
					<polygon fill="#645B55" points="138.7,90.4 137.7,89 136.7,90.4 137.7,91.9 					"/>
				</g>
				<g>
					<polygon fill="#645B55" points="140.8,93.7 139.8,92.2 138.7,93.7 139.8,95.1 					"/>
				</g>
				<g>
					<polygon fill="#645B55" points="142.8,96.9 141.8,95.5 140.8,96.9 141.8,98.3 					"/>
				</g>
			</g>
			<g>
				<polygon fill="#645B55" points="161.9,80.9 168,72.3 174.1,80.9 168,89.4 				"/>
			</g>
			<g>
				<g>
					<polygon fill="#645B55" points="167,61.6 168,60.2 169,61.6 168,63 					"/>
				</g>
				<g>
					<polygon fill="#645B55" points="169,64.8 170,63.4 171,64.8 170,66.2 					"/>
				</g>
				<g>
					<polygon fill="#645B55" points="171,68 172,66.6 173.1,68 172,69.4 					"/>
				</g>
				<g>
					<polygon fill="#645B55" points="173.1,71.2 174.1,69.8 175.1,71.2 174.1,72.6 					"/>
				</g>
				<g>
					<polygon fill="#645B55" points="175.1,74.4 176.1,73 177.1,74.4 176.1,75.8 					"/>
				</g>
				<g>
					<polygon fill="#645B55" points="177.1,77.6 178.1,76.2 179.1,77.6 178.1,79 					"/>
				</g>
				<g>
					<polygon fill="#645B55" points="179.1,80.8 180.1,79.3 181.1,80.8 180.1,82.2 					"/>
				</g>
				<g>
					<polygon fill="#645B55" points="177.1,84 178.1,82.6 179.1,84 178.1,85.4 					"/>
				</g>
				<g>
					<polygon fill="#645B55" points="175.1,87.2 176.1,85.8 177.1,87.2 176.1,88.6 					"/>
				</g>
				<g>
					<polygon fill="#645B55" points="173.1,90.4 174.1,89 175.1,90.4 174.1,91.9 					"/>
				</g>
				<g>
					<polygon fill="#645B55" points="171,93.7 172,92.2 173.1,93.7 172,95.1 					"/>
				</g>
				<g>
					<polygon fill="#645B55" points="169,96.9 170,95.5 171,96.9 170,98.3 					"/>
				</g>
				<g>
					<polygon fill="#645B55" points="167,100.1 168,98.7 169,100.1 168,101.5 					"/>
				</g>
				<g>
					<polygon fill="#645B55" points="167,64.8 166,63.4 165,64.8 166,66.2 					"/>
				</g>
				<g>
					<polygon fill="#645B55" points="165,68 164,66.6 163,68 164,69.4 					"/>
				</g>
				<g>
					<polygon fill="#645B55" points="163,71.2 162,69.8 160.9,71.2 162,72.6 					"/>
				</g>
				<g>
					<polygon fill="#645B55" points="160.9,74.4 159.9,73 158.9,74.4 159.9,75.8 					"/>
				</g>
				<g>
					<polygon fill="#645B55" points="158.9,77.6 157.9,76.2 156.9,77.6 157.9,79 					"/>
				</g>
				<g>
					<polygon fill="#645B55" points="156.9,80.8 155.9,79.3 154.9,80.8 155.9,82.2 					"/>
				</g>
				<g>
					<polygon fill="#645B55" points="158.9,84 157.9,82.6 156.9,84 157.9,85.4 					"/>
				</g>
				<g>
					<polygon fill="#645B55" points="160.9,87.2 159.9,85.8 158.9,87.2 159.9,88.6 					"/>
				</g>
				<g>
					<polygon fill="#645B55" points="163,90.4 162,89 160.9,90.4 162,91.9 					"/>
				</g>
				<g>
					<polygon fill="#645B55" points="165,93.7 164,92.2 163,93.7 164,95.1 					"/>
				</g>
				<g>
					<polygon fill="#645B55" points="167,96.9 166,95.5 165,96.9 166,98.3 					"/>
				</g>
			</g>
			<g>
				<polygon fill="#645B55" points="186.2,80.9 192.2,72.3 198.3,80.9 192.2,89.4 				"/>
			</g>
			<g>
				<g>
					<polygon fill="#645B55" points="191.2,61.6 192.2,60.2 193.2,61.6 192.2,63 					"/>
				</g>
				<g>
					<polygon fill="#645B55" points="193.2,64.8 194.2,63.4 195.3,64.8 194.2,66.2 					"/>
				</g>
				<g>
					<polygon fill="#645B55" points="195.3,68 196.3,66.6 197.3,68 196.3,69.4 					"/>
				</g>
				<g>
					<polygon fill="#645B55" points="197.3,71.2 198.3,69.8 199.3,71.2 198.3,72.6 					"/>
				</g>
				<g>
					<polygon fill="#645B55" points="199.3,74.4 200.3,73 201.3,74.4 200.3,75.8 					"/>
				</g>
				<g>
					<polygon fill="#645B55" points="201.3,77.6 202.3,76.2 203.3,77.6 202.3,79 					"/>
				</g>
				<g>
					<polygon fill="#645B55" points="203.3,80.8 204.3,79.3 205.3,80.8 204.3,82.2 					"/>
				</g>
				<g>
					<polygon fill="#645B55" points="201.3,84 202.3,82.6 203.3,84 202.3,85.4 					"/>
				</g>
				<g>
					<polygon fill="#645B55" points="199.3,87.2 200.3,85.8 201.3,87.2 200.3,88.6 					"/>
				</g>
				<g>
					<polygon fill="#645B55" points="197.3,90.4 198.3,89 199.3,90.4 198.3,91.9 					"/>
				</g>
				<g>
					<polygon fill="#645B55" points="195.3,93.7 196.3,92.2 197.3,93.7 196.3,95.1 					"/>
				</g>
				<g>
					<polygon fill="#645B55" points="193.2,96.9 194.2,95.5 195.3,96.9 194.2,98.3 					"/>
				</g>
				<g>
					<polygon fill="#645B55" points="191.2,100.1 192.2,98.7 193.2,100.1 192.2,101.5 					"/>
				</g>
				<g>
					<polygon fill="#645B55" points="191.2,64.8 190.2,63.4 189.2,64.8 190.2,66.2 					"/>
				</g>
				<g>
					<polygon fill="#645B55" points="189.2,68 188.2,66.6 187.2,68 188.2,69.4 					"/>
				</g>
				<g>
					<polygon fill="#645B55" points="187.2,71.2 186.2,69.8 185.2,71.2 186.2,72.6 					"/>
				</g>
				<g>
					<polygon fill="#645B55" points="185.2,74.4 184.2,73 183.1,74.4 184.2,75.8 					"/>
				</g>
				<g>
					<polygon fill="#645B55" points="183.1,77.6 182.1,76.2 181.1,77.6 182.1,79 					"/>
				</g>
				<g>
					<polygon fill="#645B55" points="181.1,80.8 180.1,79.3 179.1,80.8 180.1,82.2 					"/>
				</g>
				<g>
					<polygon fill="#645B55" points="183.1,84 182.1,82.6 181.1,84 182.1,85.4 					"/>
				</g>
				<g>
					<polygon fill="#645B55" points="185.2,87.2 184.2,85.8 183.1,87.2 184.2,88.6 					"/>
				</g>
				<g>
					<polygon fill="#645B55" points="187.2,90.4 186.2,89 185.2,90.4 186.2,91.9 					"/>
				</g>
				<g>
					<polygon fill="#645B55" points="189.2,93.7 188.2,92.2 187.2,93.7 188.2,95.1 					"/>
				</g>
				<g>
					<polygon fill="#645B55" points="191.2,96.9 190.2,95.5 189.2,96.9 190.2,98.3 					"/>
				</g>
			</g>
			<g>
				<polygon fill="#645B55" points="210.4,80.9 216.4,72.3 222.5,80.9 216.4,89.4 				"/>
			</g>
			<g>
				<g>
					<polygon fill="#645B55" points="215.4,61.6 216.4,60.2 217.4,61.6 216.4,63 					"/>
				</g>
				<g>
					<polygon fill="#645B55" points="217.4,64.8 218.5,63.4 219.5,64.8 218.5,66.2 					"/>
				</g>
				<g>
					<polygon fill="#645B55" points="219.5,68 220.5,66.6 221.5,68 220.5,69.4 					"/>
				</g>
				<g>
					<polygon fill="#645B55" points="221.5,71.2 222.5,69.8 223.5,71.2 222.5,72.6 					"/>
				</g>
				<g>
					<polygon fill="#645B55" points="223.5,74.4 224.5,73 225.5,74.4 224.5,75.8 					"/>
				</g>
				<g>
					<polygon fill="#645B55" points="225.5,77.6 226.5,76.2 227.5,77.6 226.5,79 					"/>
				</g>
				<g>
					<polygon fill="#645B55" points="227.5,80.8 228.6,79.3 229.6,80.8 228.6,82.2 					"/>
				</g>
				<g>
					<polygon fill="#645B55" points="225.5,84 226.5,82.6 227.5,84 226.5,85.4 					"/>
				</g>
				<g>
					<polygon fill="#645B55" points="223.5,87.2 224.5,85.8 225.5,87.2 224.5,88.6 					"/>
				</g>
				<g>
					<polygon fill="#645B55" points="221.5,90.4 222.5,89 223.5,90.4 222.5,91.9 					"/>
				</g>
				<g>
					<polygon fill="#645B55" points="219.5,93.7 220.5,92.2 221.5,93.7 220.5,95.1 					"/>
				</g>
				<g>
					<polygon fill="#645B55" points="217.4,96.9 218.5,95.5 219.5,96.9 218.5,98.3 					"/>
				</g>
				<g>
					<polygon fill="#645B55" points="215.4,100.1 216.4,98.7 217.4,100.1 216.4,101.5 					"/>
				</g>
				<g>
					<polygon fill="#645B55" points="215.4,64.8 214.4,63.4 213.4,64.8 214.4,66.2 					"/>
				</g>
				<g>
					<polygon fill="#645B55" points="213.4,68 212.4,66.6 211.4,68 212.4,69.4 					"/>
				</g>
				<g>
					<polygon fill="#645B55" points="211.4,71.2 210.4,69.8 209.4,71.2 210.4,72.6 					"/>
				</g>
				<g>
					<polygon fill="#645B55" points="209.4,74.4 208.4,73 207.4,74.4 208.4,75.8 					"/>
				</g>
				<g>
					<polygon fill="#645B55" points="207.4,77.6 206.4,76.2 205.3,77.6 206.4,79 					"/>
				</g>
				<g>
					<polygon fill="#645B55" points="205.3,80.8 204.3,79.3 203.3,80.8 204.3,82.2 					"/>
				</g>
				<g>
					<polygon fill="#645B55" points="207.4,84 206.4,82.6 205.3,84 206.4,85.4 					"/>
				</g>
				<g>
					<polygon fill="#645B55" points="209.4,87.2 208.4,85.8 207.4,87.2 208.4,88.6 					"/>
				</g>
				<g>
					<polygon fill="#645B55" points="211.4,90.4 210.4,89 209.4,90.4 210.4,91.9 					"/>
				</g>
				<g>
					<polygon fill="#645B55" points="213.4,93.7 212.4,92.2 211.4,93.7 212.4,95.1 					"/>
				</g>
				<g>
					<polygon fill="#645B55" points="215.4,96.9 214.4,95.5 213.4,96.9 214.4,98.3 					"/>
				</g>
			</g>
			<g>
				<polygon fill="#645B55" points="234.6,80.9 240.6,72.3 246.7,80.9 240.6,89.4 				"/>
			</g>
			<g>
				<g>
					<polygon fill="#645B55" points="239.6,61.6 240.6,60.2 241.7,61.6 240.6,63 					"/>
				</g>
				<g>
					<polygon fill="#645B55" points="241.7,64.8 242.7,63.4 243.7,64.8 242.7,66.2 					"/>
				</g>
				<g>
					<polygon fill="#645B55" points="243.7,68 244.7,66.6 245.7,68 244.7,69.4 					"/>
				</g>
				<g>
					<polygon fill="#645B55" points="245.7,71.2 246.7,69.8 247.7,71.2 246.7,72.6 					"/>
				</g>
				<g>
					<polygon fill="#645B55" points="247.7,74.4 248.7,73 249.7,74.4 248.7,75.8 					"/>
				</g>
				<g>
					<polygon fill="#645B55" points="249.7,77.6 250.7,76.2 251.8,77.6 250.7,79 					"/>
				</g>
				<g>
					<polygon fill="#645B55" points="251.8,80.8 252.8,79.3 253.8,80.8 252.8,82.2 					"/>
				</g>
				<g>
					<polygon fill="#645B55" points="249.7,84 250.7,82.6 251.8,84 250.7,85.4 					"/>
				</g>
				<g>
					<polygon fill="#645B55" points="247.7,87.2 248.7,85.8 249.7,87.2 248.7,88.6 					"/>
				</g>
				<g>
					<polygon fill="#645B55" points="245.7,90.4 246.7,89 247.7,90.4 246.7,91.9 					"/>
				</g>
				<g>
					<polygon fill="#645B55" points="243.7,93.7 244.7,92.2 245.7,93.7 244.7,95.1 					"/>
				</g>
				<g>
					<polygon fill="#645B55" points="241.7,96.9 242.7,95.5 243.7,96.9 242.7,98.3 					"/>
				</g>
				<g>
					<polygon fill="#645B55" points="239.6,100.1 240.6,98.7 241.7,100.1 240.6,101.5 					"/>
				</g>
				<g>
					<polygon fill="#645B55" points="239.6,64.8 238.6,63.4 237.6,64.8 238.6,66.2 					"/>
				</g>
				<g>
					<polygon fill="#645B55" points="237.6,68 236.6,66.6 235.6,68 236.6,69.4 					"/>
				</g>
				<g>
					<polygon fill="#645B55" points="235.6,71.2 234.6,69.8 233.6,71.2 234.6,72.6 					"/>
				</g>
				<g>
					<polygon fill="#645B55" points="233.6,74.4 232.6,73 231.6,74.4 232.6,75.8 					"/>
				</g>
				<g>
					<polygon fill="#645B55" points="231.6,77.6 230.6,76.2 229.6,77.6 230.6,79 					"/>
				</g>
				<g>
					<polygon fill="#645B55" points="229.6,80.8 228.6,79.3 227.5,80.8 228.6,82.2 					"/>
				</g>
				<g>
					<polygon fill="#645B55" points="231.6,84 230.6,82.6 229.6,84 230.6,85.4 					"/>
				</g>
				<g>
					<polygon fill="#645B55" points="233.6,87.2 232.6,85.8 231.6,87.2 232.6,88.6 					"/>
				</g>
				<g>
					<polygon fill="#645B55" points="235.6,90.4 234.6,89 233.6,90.4 234.6,91.9 					"/>
				</g>
				<g>
					<polygon fill="#645B55" points="237.6,93.7 236.6,92.2 235.6,93.7 236.6,95.1 					"/>
				</g>
				<g>
					<polygon fill="#645B55" points="239.6,96.9 238.6,95.5 237.6,96.9 238.6,98.3 					"/>
				</g>
			</g>
			<g>
				<g>
					<polygon fill="#645B55" points="253.8,80.8 252.8,79.3 251.8,80.8 252.8,82.2 					"/>
				</g>
			</g>
			<g>
				<polygon fill="#645B55" points="89.3,119.3 95.3,110.8 101.4,119.3 95.3,127.9 				"/>
			</g>
			<g>
				<g>
					<polygon fill="#645B55" points="94.3,100.1 95.3,98.7 96.4,100.1 95.3,101.5 					"/>
				</g>
				<g>
					<polygon fill="#645B55" points="96.4,103.3 97.4,101.9 98.4,103.3 97.4,104.7 					"/>
				</g>
				<g>
					<polygon fill="#645B55" points="98.4,106.5 99.4,105.1 100.4,106.5 99.4,107.9 					"/>
				</g>
				<g>
					<polygon fill="#645B55" points="100.4,109.7 101.4,108.3 102.4,109.7 101.4,111.1 					"/>
				</g>
				<g>
					<polygon fill="#645B55" points="102.4,112.9 103.4,111.4 104.4,112.9 103.4,114.3 					"/>
				</g>
				<g>
					<polygon fill="#645B55" points="104.4,116.1 105.4,114.6 106.5,116.1 105.4,117.5 					"/>
				</g>
				<g>
					<polygon fill="#645B55" points="106.5,119.2 107.4,117.8 108.5,119.2 107.4,120.7 					"/>
				</g>
				<g>
					<polygon fill="#645B55" points="104.4,122.5 105.4,121 106.5,122.5 105.4,123.9 					"/>
				</g>
				<g>
					<polygon fill="#645B55" points="102.4,125.7 103.4,124.3 104.4,125.7 103.4,127.1 					"/>
				</g>
				<g>
					<polygon fill="#645B55" points="100.4,128.9 101.4,127.5 102.4,128.9 101.4,130.3 					"/>
				</g>
				<g>
					<polygon fill="#645B55" points="98.4,132.1 99.4,130.7 100.4,132.1 99.4,133.6 					"/>
				</g>
				<g>
					<polygon fill="#645B55" points="96.4,135.4 97.4,133.9 98.4,135.4 97.4,136.8 					"/>
				</g>
				<g>
					<polygon fill="#645B55" points="94.3,138.6 95.3,137.2 96.4,138.6 95.3,140 					"/>
				</g>
				<g>
					<polygon fill="#645B55" points="94.3,103.3 93.3,101.9 92.3,103.3 93.3,104.7 					"/>
				</g>
				<g>
					<polygon fill="#645B55" points="92.3,106.5 91.3,105.1 90.3,106.5 91.3,107.9 					"/>
				</g>
				<g>
					<polygon fill="#645B55" points="90.3,109.7 89.3,108.3 88.3,109.7 89.3,111.1 					"/>
				</g>
				<g>
					<polygon fill="#645B55" points="88.3,112.9 87.3,111.4 86.3,112.9 87.3,114.3 					"/>
				</g>
				<g>
					<polygon fill="#645B55" points="86.3,116.1 85.3,114.6 84.2,116.1 85.3,117.5 					"/>
				</g>
				<g>
					<polygon fill="#645B55" points="88.3,125.7 87.3,124.3 86.3,125.7 87.3,127.1 					"/>
				</g>
				<g>
					<polygon fill="#645B55" points="90.3,128.9 89.3,127.5 88.3,128.9 89.3,130.3 					"/>
				</g>
				<g>
					<polygon fill="#645B55" points="92.3,132.1 91.3,130.7 90.3,132.1 91.3,133.6 					"/>
				</g>
				<g>
					<polygon fill="#645B55" points="94.3,135.4 93.3,133.9 92.3,135.4 93.3,136.8 					"/>
				</g>
			</g>
			<g>
				<polygon fill="#645B55" points="113.5,119.3 119.5,110.8 125.6,119.3 119.5,127.9 				"/>
			</g>
			<g>
				<g>
					<polygon fill="#645B55" points="118.6,100.1 119.6,98.7 120.6,100.1 119.6,101.5 					"/>
				</g>
				<g>
					<polygon fill="#645B55" points="120.6,103.3 121.6,101.9 122.6,103.3 121.6,104.7 					"/>
				</g>
				<g>
					<polygon fill="#645B55" points="122.6,106.5 123.6,105.1 124.6,106.5 123.6,107.9 					"/>
				</g>
				<g>
					<polygon fill="#645B55" points="124.6,109.7 125.6,108.3 126.6,109.7 125.6,111.1 					"/>
				</g>
				<g>
					<polygon fill="#645B55" points="126.6,112.9 127.6,111.4 128.7,112.9 127.6,114.3 					"/>
				</g>
				<g>
					<polygon fill="#645B55" points="128.7,116.1 129.7,114.6 130.7,116.1 129.7,117.5 					"/>
				</g>
				<g>
					<polygon fill="#645B55" points="130.7,119.2 131.7,117.8 132.7,119.2 131.7,120.7 					"/>
				</g>
				<g>
					<polygon fill="#645B55" points="128.7,122.5 129.7,121 130.7,122.5 129.7,123.9 					"/>
				</g>
				<g>
					<polygon fill="#645B55" points="126.6,125.7 127.6,124.3 128.7,125.7 127.6,127.1 					"/>
				</g>
				<g>
					<polygon fill="#645B55" points="124.6,128.9 125.6,127.5 126.6,128.9 125.6,130.3 					"/>
				</g>
				<g>
					<polygon fill="#645B55" points="122.6,132.1 123.6,130.7 124.6,132.1 123.6,133.6 					"/>
				</g>
				<g>
					<polygon fill="#645B55" points="120.6,135.4 121.6,133.9 122.6,135.4 121.6,136.8 					"/>
				</g>
				<g>
					<polygon fill="#645B55" points="118.6,138.6 119.6,137.2 120.6,138.6 119.6,140 					"/>
				</g>
				<g>
					<polygon fill="#645B55" points="118.6,103.3 117.6,101.9 116.5,103.3 117.6,104.7 					"/>
				</g>
				<g>
					<polygon fill="#645B55" points="116.5,106.5 115.5,105.1 114.5,106.5 115.5,107.9 					"/>
				</g>
				<g>
					<polygon fill="#645B55" points="114.5,109.7 113.5,108.3 112.5,109.7 113.5,111.1 					"/>
				</g>
				<g>
					<polygon fill="#645B55" points="112.5,112.9 111.5,111.4 110.5,112.9 111.5,114.3 					"/>
				</g>
				<g>
					<polygon fill="#645B55" points="110.5,116.1 109.5,114.6 108.5,116.1 109.5,117.5 					"/>
				</g>
				<g>
					<polygon fill="#645B55" points="108.5,119.2 107.5,117.8 106.5,119.2 107.5,120.7 					"/>
				</g>
				<g>
					<polygon fill="#645B55" points="110.5,122.5 109.5,121 108.5,122.5 109.5,123.9 					"/>
				</g>
				<g>
					<polygon fill="#645B55" points="112.5,125.7 111.5,124.3 110.5,125.7 111.5,127.1 					"/>
				</g>
				<g>
					<polygon fill="#645B55" points="114.5,128.9 113.5,127.5 112.5,128.9 113.5,130.3 					"/>
				</g>
				<g>
					<polygon fill="#645B55" points="116.5,132.1 115.5,130.7 114.5,132.1 115.5,133.6 					"/>
				</g>
				<g>
					<polygon fill="#645B55" points="118.6,135.4 117.6,133.9 116.5,135.4 117.6,136.8 					"/>
				</g>
			</g>
			<g>
				<polygon fill="#645B55" points="137.7,119.3 143.7,110.8 149.8,119.3 143.7,127.9 				"/>
			</g>
			<g>
				<g>
					<polygon fill="#645B55" points="142.8,100.1 143.8,98.7 144.8,100.1 143.8,101.5 					"/>
				</g>
				<g>
					<polygon fill="#645B55" points="144.8,103.3 145.8,101.9 146.8,103.3 145.8,104.7 					"/>
				</g>
				<g>
					<polygon fill="#645B55" points="146.8,106.5 147.8,105.1 148.8,106.5 147.8,107.9 					"/>
				</g>
				<g>
					<polygon fill="#645B55" points="148.8,109.7 149.8,108.3 150.8,109.7 149.8,111.1 					"/>
				</g>
				<g>
					<polygon fill="#645B55" points="150.8,112.9 151.9,111.4 152.9,112.9 151.9,114.3 					"/>
				</g>
				<g>
					<polygon fill="#645B55" points="152.9,116.1 153.9,114.6 154.9,116.1 153.9,117.5 					"/>
				</g>
				<g>
					<polygon fill="#645B55" points="154.9,119.2 155.9,117.8 156.9,119.2 155.9,120.7 					"/>
				</g>
				<g>
					<polygon fill="#645B55" points="152.9,122.5 153.9,121 154.9,122.5 153.9,123.9 					"/>
				</g>
				<g>
					<polygon fill="#645B55" points="150.8,125.7 151.9,124.3 152.9,125.7 151.9,127.1 					"/>
				</g>
				<g>
					<polygon fill="#645B55" points="148.8,128.9 149.8,127.5 150.8,128.9 149.8,130.3 					"/>
				</g>
				<g>
					<polygon fill="#645B55" points="146.8,132.1 147.8,130.7 148.8,132.1 147.8,133.6 					"/>
				</g>
				<g>
					<polygon fill="#645B55" points="144.8,135.4 145.8,133.9 146.8,135.4 145.8,136.8 					"/>
				</g>
				<g>
					<polygon fill="#645B55" points="142.8,138.6 143.8,137.2 144.8,138.6 143.8,140 					"/>
				</g>
				<g>
					<polygon fill="#645B55" points="142.8,103.3 141.8,101.9 140.8,103.3 141.8,104.7 					"/>
				</g>
				<g>
					<polygon fill="#645B55" points="140.8,106.5 139.8,105.1 138.7,106.5 139.8,107.9 					"/>
				</g>
				<g>
					<polygon fill="#645B55" points="138.7,109.7 137.7,108.3 136.7,109.7 137.7,111.1 					"/>
				</g>
				<g>
					<polygon fill="#645B55" points="136.7,112.9 135.7,111.4 134.7,112.9 135.7,114.3 					"/>
				</g>
				<g>
					<polygon fill="#645B55" points="134.7,116.1 133.7,114.6 132.7,116.1 133.7,117.5 					"/>
				</g>
				<g>
					<polygon fill="#645B55" points="132.7,119.2 131.7,117.8 130.7,119.2 131.7,120.7 					"/>
				</g>
				<g>
					<polygon fill="#645B55" points="134.7,122.5 133.7,121 132.7,122.5 133.7,123.9 					"/>
				</g>
				<g>
					<polygon fill="#645B55" points="136.7,125.7 135.7,124.3 134.7,125.7 135.7,127.1 					"/>
				</g>
				<g>
					<polygon fill="#645B55" points="138.7,128.9 137.7,127.5 136.7,128.9 137.7,130.3 					"/>
				</g>
				<g>
					<polygon fill="#645B55" points="140.8,132.1 139.8,130.7 138.7,132.1 139.8,133.6 					"/>
				</g>
				<g>
					<polygon fill="#645B55" points="142.8,135.4 141.8,133.9 140.8,135.4 141.8,136.8 					"/>
				</g>
			</g>
			<g>
				<polygon fill="#645B55" points="161.9,119.3 168,110.8 174.1,119.3 168,127.9 				"/>
			</g>
			<g>
				<g>
					<polygon fill="#645B55" points="167,100.1 168,98.7 169,100.1 168,101.5 					"/>
				</g>
				<g>
					<polygon fill="#645B55" points="169,103.3 170,101.9 171,103.3 170,104.7 					"/>
				</g>
				<g>
					<polygon fill="#645B55" points="171,106.5 172,105.1 173.1,106.5 172,107.9 					"/>
				</g>
				<g>
					<polygon fill="#645B55" points="173.1,109.7 174.1,108.3 175.1,109.7 174.1,111.1 					"/>
				</g>
				<g>
					<polygon fill="#645B55" points="175.1,112.9 176.1,111.4 177.1,112.9 176.1,114.3 					"/>
				</g>
				<g>
					<polygon fill="#645B55" points="177.1,116.1 178.1,114.6 179.1,116.1 178.1,117.5 					"/>
				</g>
				<g>
					<polygon fill="#645B55" points="179.1,119.2 180.1,117.8 181.1,119.2 180.1,120.7 					"/>
				</g>
				<g>
					<polygon fill="#645B55" points="177.1,122.5 178.1,121 179.1,122.5 178.1,123.9 					"/>
				</g>
				<g>
					<polygon fill="#645B55" points="175.1,125.7 176.1,124.3 177.1,125.7 176.1,127.1 					"/>
				</g>
				<g>
					<polygon fill="#645B55" points="173.1,128.9 174.1,127.5 175.1,128.9 174.1,130.3 					"/>
				</g>
				<g>
					<polygon fill="#645B55" points="171,132.1 172,130.7 173.1,132.1 172,133.6 					"/>
				</g>
				<g>
					<polygon fill="#645B55" points="169,135.4 170,133.9 171,135.4 170,136.8 					"/>
				</g>
				<g>
					<polygon fill="#645B55" points="167,138.6 168,137.2 169,138.6 168,140 					"/>
				</g>
				<g>
					<polygon fill="#645B55" points="167,103.3 166,101.9 165,103.3 166,104.7 					"/>
				</g>
				<g>
					<polygon fill="#645B55" points="165,106.5 164,105.1 163,106.5 164,107.9 					"/>
				</g>
				<g>
					<polygon fill="#645B55" points="163,109.7 162,108.3 160.9,109.7 162,111.1 					"/>
				</g>
				<g>
					<polygon fill="#645B55" points="160.9,112.9 159.9,111.4 158.9,112.9 159.9,114.3 					"/>
				</g>
				<g>
					<polygon fill="#645B55" points="158.9,116.1 157.9,114.6 156.9,116.1 157.9,117.5 					"/>
				</g>
				<g>
					<polygon fill="#645B55" points="156.9,119.2 155.9,117.8 154.9,119.2 155.9,120.7 					"/>
				</g>
				<g>
					<polygon fill="#645B55" points="158.9,122.5 157.9,121 156.9,122.5 157.9,123.9 					"/>
				</g>
				<g>
					<polygon fill="#645B55" points="160.9,125.7 159.9,124.3 158.9,125.7 159.9,127.1 					"/>
				</g>
				<g>
					<polygon fill="#645B55" points="163,128.9 162,127.5 160.9,128.9 162,130.3 					"/>
				</g>
				<g>
					<polygon fill="#645B55" points="165,132.1 164,130.7 163,132.1 164,133.6 					"/>
				</g>
				<g>
					<polygon fill="#645B55" points="167,135.4 166,133.9 165,135.4 166,136.8 					"/>
				</g>
			</g>
			<g>
				<polygon fill="#645B55" points="186.2,119.3 192.2,110.8 198.3,119.3 192.2,127.9 				"/>
			</g>
			<g>
				<g>
					<polygon fill="#645B55" points="191.2,100.1 192.2,98.7 193.2,100.1 192.2,101.5 					"/>
				</g>
				<g>
					<polygon fill="#645B55" points="193.2,103.3 194.2,101.9 195.3,103.3 194.2,104.7 					"/>
				</g>
				<g>
					<polygon fill="#645B55" points="195.3,106.5 196.3,105.1 197.3,106.5 196.3,107.9 					"/>
				</g>
				<g>
					<polygon fill="#645B55" points="197.3,109.7 198.3,108.3 199.3,109.7 198.3,111.1 					"/>
				</g>
				<g>
					<polygon fill="#645B55" points="199.3,112.9 200.3,111.4 201.3,112.9 200.3,114.3 					"/>
				</g>
				<g>
					<polygon fill="#645B55" points="201.3,116.1 202.3,114.6 203.3,116.1 202.3,117.5 					"/>
				</g>
				<g>
					<polygon fill="#645B55" points="203.3,119.2 204.3,117.8 205.3,119.2 204.3,120.7 					"/>
				</g>
				<g>
					<polygon fill="#645B55" points="201.3,122.5 202.3,121 203.3,122.5 202.3,123.9 					"/>
				</g>
				<g>
					<polygon fill="#645B55" points="199.3,125.7 200.3,124.3 201.3,125.7 200.3,127.1 					"/>
				</g>
				<g>
					<polygon fill="#645B55" points="197.3,128.9 198.3,127.5 199.3,128.9 198.3,130.3 					"/>
				</g>
				<g>
					<polygon fill="#645B55" points="195.3,132.1 196.3,130.7 197.3,132.1 196.3,133.6 					"/>
				</g>
				<g>
					<polygon fill="#645B55" points="193.2,135.4 194.2,133.9 195.3,135.4 194.2,136.8 					"/>
				</g>
				<g>
					<polygon fill="#645B55" points="191.2,138.6 192.2,137.2 193.2,138.6 192.2,140 					"/>
				</g>
				<g>
					<polygon fill="#645B55" points="191.2,103.3 190.2,101.9 189.2,103.3 190.2,104.7 					"/>
				</g>
				<g>
					<polygon fill="#645B55" points="189.2,106.5 188.2,105.1 187.2,106.5 188.2,107.9 					"/>
				</g>
				<g>
					<polygon fill="#645B55" points="187.2,109.7 186.2,108.3 185.2,109.7 186.2,111.1 					"/>
				</g>
				<g>
					<polygon fill="#645B55" points="185.2,112.9 184.2,111.4 183.1,112.9 184.2,114.3 					"/>
				</g>
				<g>
					<polygon fill="#645B55" points="183.1,116.1 182.1,114.6 181.1,116.1 182.1,117.5 					"/>
				</g>
				<g>
					<polygon fill="#645B55" points="181.1,119.2 180.1,117.8 179.1,119.2 180.1,120.7 					"/>
				</g>
				<g>
					<polygon fill="#645B55" points="183.1,122.5 182.1,121 181.1,122.5 182.1,123.9 					"/>
				</g>
				<g>
					<polygon fill="#645B55" points="185.2,125.7 184.2,124.3 183.1,125.7 184.2,127.1 					"/>
				</g>
				<g>
					<polygon fill="#645B55" points="187.2,128.9 186.2,127.5 185.2,128.9 186.2,130.3 					"/>
				</g>
				<g>
					<polygon fill="#645B55" points="189.2,132.1 188.2,130.7 187.2,132.1 188.2,133.6 					"/>
				</g>
				<g>
					<polygon fill="#645B55" points="191.2,135.4 190.2,133.9 189.2,135.4 190.2,136.8 					"/>
				</g>
			</g>
			<g>
				<polygon fill="#645B55" points="210.4,119.3 216.4,110.8 222.5,119.3 216.4,127.9 				"/>
			</g>
			<g>
				<g>
					<polygon fill="#645B55" points="215.4,100.1 216.4,98.7 217.4,100.1 216.4,101.5 					"/>
				</g>
				<g>
					<polygon fill="#645B55" points="217.4,103.3 218.5,101.9 219.5,103.3 218.5,104.7 					"/>
				</g>
				<g>
					<polygon fill="#645B55" points="219.5,106.5 220.5,105.1 221.5,106.5 220.5,107.9 					"/>
				</g>
				<g>
					<polygon fill="#645B55" points="221.5,109.7 222.5,108.3 223.5,109.7 222.5,111.1 					"/>
				</g>
				<g>
					<polygon fill="#645B55" points="223.5,112.9 224.5,111.4 225.5,112.9 224.5,114.3 					"/>
				</g>
				<g>
					<polygon fill="#645B55" points="225.5,116.1 226.5,114.6 227.5,116.1 226.5,117.5 					"/>
				</g>
				<g>
					<polygon fill="#645B55" points="227.5,119.2 228.6,117.8 229.6,119.2 228.6,120.7 					"/>
				</g>
				<g>
					<polygon fill="#645B55" points="225.5,122.5 226.5,121 227.5,122.5 226.5,123.9 					"/>
				</g>
				<g>
					<polygon fill="#645B55" points="223.5,125.7 224.5,124.3 225.5,125.7 224.5,127.1 					"/>
				</g>
				<g>
					<polygon fill="#645B55" points="221.5,128.9 222.5,127.5 223.5,128.9 222.5,130.3 					"/>
				</g>
				<g>
					<polygon fill="#645B55" points="219.5,132.1 220.5,130.7 221.5,132.1 220.5,133.6 					"/>
				</g>
				<g>
					<polygon fill="#645B55" points="217.4,135.4 218.5,133.9 219.5,135.4 218.5,136.8 					"/>
				</g>
				<g>
					<polygon fill="#645B55" points="215.4,138.6 216.4,137.2 217.4,138.6 216.4,140 					"/>
				</g>
				<g>
					<polygon fill="#645B55" points="215.4,103.3 214.4,101.9 213.4,103.3 214.4,104.7 					"/>
				</g>
				<g>
					<polygon fill="#645B55" points="213.4,106.5 212.4,105.1 211.4,106.5 212.4,107.9 					"/>
				</g>
				<g>
					<polygon fill="#645B55" points="211.4,109.7 210.4,108.3 209.4,109.7 210.4,111.1 					"/>
				</g>
				<g>
					<polygon fill="#645B55" points="209.4,112.9 208.4,111.4 207.4,112.9 208.4,114.3 					"/>
				</g>
				<g>
					<polygon fill="#645B55" points="207.4,116.1 206.4,114.6 205.3,116.1 206.4,117.5 					"/>
				</g>
				<g>
					<polygon fill="#645B55" points="205.3,119.2 204.3,117.8 203.3,119.2 204.3,120.7 					"/>
				</g>
				<g>
					<polygon fill="#645B55" points="207.4,122.5 206.4,121 205.3,122.5 206.4,123.9 					"/>
				</g>
				<g>
					<polygon fill="#645B55" points="209.4,125.7 208.4,124.3 207.4,125.7 208.4,127.1 					"/>
				</g>
				<g>
					<polygon fill="#645B55" points="211.4,128.9 210.4,127.5 209.4,128.9 210.4,130.3 					"/>
				</g>
				<g>
					<polygon fill="#645B55" points="213.4,132.1 212.4,130.7 211.4,132.1 212.4,133.6 					"/>
				</g>
				<g>
					<polygon fill="#645B55" points="215.4,135.4 214.4,133.9 213.4,135.4 214.4,136.8 					"/>
				</g>
			</g>
			<g>
				<polygon fill="#645B55" points="234.6,119.3 240.6,110.8 246.7,119.3 240.6,127.9 				"/>
			</g>
			<g>
				<g>
					<polygon fill="#645B55" points="239.6,100.1 240.6,98.7 241.7,100.1 240.6,101.5 					"/>
				</g>
				<g>
					<polygon fill="#645B55" points="241.7,103.3 242.7,101.9 243.7,103.3 242.7,104.7 					"/>
				</g>
				<g>
					<polygon fill="#645B55" points="243.7,106.5 244.7,105.1 245.7,106.5 244.7,107.9 					"/>
				</g>
				<g>
					<polygon fill="#645B55" points="245.7,109.7 246.7,108.3 247.7,109.7 246.7,111.1 					"/>
				</g>
				<g>
					<polygon fill="#645B55" points="247.7,112.9 248.7,111.4 249.7,112.9 248.7,114.3 					"/>
				</g>
				<g>
					<polygon fill="#645B55" points="245.7,128.9 246.7,127.5 247.7,128.9 246.7,130.3 					"/>
				</g>
				<g>
					<polygon fill="#645B55" points="243.7,132.1 244.7,130.7 245.7,132.1 244.7,133.6 					"/>
				</g>
				<g>
					<polygon fill="#645B55" points="241.7,135.4 242.7,133.9 243.7,135.4 242.7,136.8 					"/>
				</g>
				<g>
					<polygon fill="#645B55" points="239.6,138.6 240.6,137.2 241.7,138.6 240.6,140 					"/>
				</g>
				<g>
					<polygon fill="#645B55" points="239.6,103.3 238.6,101.9 237.6,103.3 238.6,104.7 					"/>
				</g>
				<g>
					<polygon fill="#645B55" points="237.6,106.5 236.6,105.1 235.6,106.5 236.6,107.9 					"/>
				</g>
				<g>
					<polygon fill="#645B55" points="235.6,109.7 234.6,108.3 233.6,109.7 234.6,111.1 					"/>
				</g>
				<g>
					<polygon fill="#645B55" points="233.6,112.9 232.6,111.4 231.6,112.9 232.6,114.3 					"/>
				</g>
				<g>
					<polygon fill="#645B55" points="231.6,116.1 230.6,114.6 229.6,116.1 230.6,117.5 					"/>
				</g>
				<g>
					<polygon fill="#645B55" points="229.6,119.2 228.6,117.8 227.5,119.2 228.6,120.7 					"/>
				</g>
				<g>
					<polygon fill="#645B55" points="231.6,122.5 230.6,121 229.6,122.5 230.6,123.9 					"/>
				</g>
				<g>
					<polygon fill="#645B55" points="233.6,125.7 232.6,124.3 231.6,125.7 232.6,127.1 					"/>
				</g>
				<g>
					<polygon fill="#645B55" points="235.6,128.9 234.6,127.5 233.6,128.9 234.6,130.3 					"/>
				</g>
				<g>
					<polygon fill="#645B55" points="237.6,132.1 236.6,130.7 235.6,132.1 236.6,133.6 					"/>
				</g>
				<g>
					<polygon fill="#645B55" points="239.6,135.4 238.6,133.9 237.6,135.4 238.6,136.8 					"/>
				</g>
			</g>
			<g>
				<g>
					<polygon fill="#645B55" points="94.3,138.6 95.3,137.2 96.4,138.6 95.3,140 					"/>
				</g>
				<g>
					<polygon fill="#645B55" points="96.4,141.8 97.4,140.3 98.4,141.8 97.4,143.2 					"/>
				</g>
				<g>
					<polygon fill="#645B55" points="98.4,145 99.4,143.5 100.4,145 99.4,146.4 					"/>
				</g>
				<g>
					<polygon fill="#645B55" points="100.4,148.2 101.4,146.7 102.4,148.2 101.4,149.6 					"/>
				</g>
				<g>
					<polygon fill="#645B55" points="102.4,151.3 103.4,149.9 104.4,151.3 103.4,152.8 					"/>
				</g>
				<g>
					<polygon fill="#645B55" points="104.4,154.5 105.4,153.1 106.5,154.5 105.4,156 					"/>
				</g>
				<g>
					<polygon fill="#645B55" points="106.5,157.7 107.4,156.3 108.5,157.7 107.4,159.2 					"/>
				</g>
				<g>
					<polygon fill="#645B55" points="104.4,160.9 105.4,159.5 106.5,160.9 105.4,162.4 					"/>
				</g>
				<g>
					<polygon fill="#645B55" points="94.3,141.8 93.3,140.3 92.3,141.8 93.3,143.2 					"/>
				</g>
			</g>
			<g>
				<polygon fill="#645B55" points="113.5,157.8 119.5,149.3 125.6,157.8 119.5,166.4 				"/>
			</g>
			<g>
				<g>
					<polygon fill="#645B55" points="118.6,138.6 119.6,137.2 120.6,138.6 119.6,140 					"/>
				</g>
				<g>
					<polygon fill="#645B55" points="120.6,141.8 121.6,140.3 122.6,141.8 121.6,143.2 					"/>
				</g>
				<g>
					<polygon fill="#645B55" points="122.6,145 123.6,143.5 124.6,145 123.6,146.4 					"/>
				</g>
				<g>
					<polygon fill="#645B55" points="124.6,148.2 125.6,146.7 126.6,148.2 125.6,149.6 					"/>
				</g>
				<g>
					<polygon fill="#645B55" points="126.6,151.3 127.6,149.9 128.7,151.3 127.6,152.8 					"/>
				</g>
				<g>
					<polygon fill="#645B55" points="128.7,154.5 129.7,153.1 130.7,154.5 129.7,156 					"/>
				</g>
				<g>
					<polygon fill="#645B55" points="130.7,157.7 131.7,156.3 132.7,157.7 131.7,159.2 					"/>
				</g>
				<g>
					<polygon fill="#645B55" points="128.7,160.9 129.7,159.5 130.7,160.9 129.7,162.4 					"/>
				</g>
				<g>
					<polygon fill="#645B55" points="126.6,164.2 127.6,162.7 128.7,164.2 127.6,165.6 					"/>
				</g>
				<g>
					<polygon fill="#645B55" points="124.6,167.4 125.6,166 126.6,167.4 125.6,168.8 					"/>
				</g>
				<g>
					<polygon fill="#645B55" points="122.6,170.6 123.6,169.2 124.6,170.6 123.6,172 					"/>
				</g>
				<g>
					<polygon fill="#645B55" points="120.6,173.8 121.6,172.4 122.6,173.8 121.6,175.3 					"/>
				</g>
				<g>
					<polygon fill="#645B55" points="118.6,177.1 119.6,175.6 120.6,177.1 119.6,178.5 					"/>
				</g>
				<g>
					<polygon fill="#645B55" points="118.6,141.8 117.6,140.3 116.5,141.8 117.6,143.2 					"/>
				</g>
				<g>
					<polygon fill="#645B55" points="116.5,145 115.5,143.5 114.5,145 115.5,146.4 					"/>
				</g>
				<g>
					<polygon fill="#645B55" points="114.5,148.2 113.5,146.7 112.5,148.2 113.5,149.6 					"/>
				</g>
				<g>
					<polygon fill="#645B55" points="112.5,151.3 111.5,149.9 110.5,151.3 111.5,152.8 					"/>
				</g>
				<g>
					<polygon fill="#645B55" points="110.5,154.5 109.5,153.1 108.5,154.5 109.5,156 					"/>
				</g>
				<g>
					<polygon fill="#645B55" points="108.5,157.7 107.5,156.3 106.5,157.7 107.5,159.2 					"/>
				</g>
				<g>
					<polygon fill="#645B55" points="110.5,160.9 109.5,159.5 108.5,160.9 109.5,162.4 					"/>
				</g>
				<g>
					<polygon fill="#645B55" points="112.5,164.2 111.5,162.7 110.5,164.2 111.5,165.6 					"/>
				</g>
				<g>
					<polygon fill="#645B55" points="114.5,167.4 113.5,166 112.5,167.4 113.5,168.8 					"/>
				</g>
				<g>
					<polygon fill="#645B55" points="116.5,170.6 115.5,169.2 114.5,170.6 115.5,172 					"/>
				</g>
				<g>
					<polygon fill="#645B55" points="118.6,173.8 117.6,172.4 116.5,173.8 117.6,175.3 					"/>
				</g>
			</g>
			<g>
				<polygon fill="#645B55" points="137.7,157.8 143.7,149.3 149.8,157.8 143.7,166.4 				"/>
			</g>
			<g>
				<g>
					<polygon fill="#645B55" points="142.8,138.6 143.8,137.2 144.8,138.6 143.8,140 					"/>
				</g>
				<g>
					<polygon fill="#645B55" points="144.8,141.8 145.8,140.3 146.8,141.8 145.8,143.2 					"/>
				</g>
				<g>
					<polygon fill="#645B55" points="146.8,145 147.8,143.5 148.8,145 147.8,146.4 					"/>
				</g>
				<g>
					<polygon fill="#645B55" points="148.8,148.2 149.8,146.7 150.8,148.2 149.8,149.6 					"/>
				</g>
				<g>
					<polygon fill="#645B55" points="150.8,151.3 151.9,149.9 152.9,151.3 151.9,152.8 					"/>
				</g>
				<g>
					<polygon fill="#645B55" points="152.9,154.5 153.9,153.1 154.9,154.5 153.9,156 					"/>
				</g>
				<g>
					<polygon fill="#645B55" points="154.9,157.7 155.9,156.3 156.9,157.7 155.9,159.2 					"/>
				</g>
				<g>
					<polygon fill="#645B55" points="152.9,160.9 153.9,159.5 154.9,160.9 153.9,162.4 					"/>
				</g>
				<g>
					<polygon fill="#645B55" points="150.8,164.2 151.9,162.7 152.9,164.2 151.9,165.6 					"/>
				</g>
				<g>
					<polygon fill="#645B55" points="148.8,167.4 149.8,166 150.8,167.4 149.8,168.8 					"/>
				</g>
				<g>
					<polygon fill="#645B55" points="146.8,170.6 147.8,169.2 148.8,170.6 147.8,172 					"/>
				</g>
				<g>
					<polygon fill="#645B55" points="144.8,173.8 145.8,172.4 146.8,173.8 145.8,175.3 					"/>
				</g>
				<g>
					<polygon fill="#645B55" points="142.8,177.1 143.8,175.6 144.8,177.1 143.8,178.5 					"/>
				</g>
				<g>
					<polygon fill="#645B55" points="142.8,141.8 141.8,140.3 140.8,141.8 141.8,143.2 					"/>
				</g>
				<g>
					<polygon fill="#645B55" points="140.8,145 139.8,143.5 138.7,145 139.8,146.4 					"/>
				</g>
				<g>
					<polygon fill="#645B55" points="138.7,148.2 137.7,146.7 136.7,148.2 137.7,149.6 					"/>
				</g>
				<g>
					<polygon fill="#645B55" points="136.7,151.3 135.7,149.9 134.7,151.3 135.7,152.8 					"/>
				</g>
				<g>
					<polygon fill="#645B55" points="134.7,154.5 133.7,153.1 132.7,154.5 133.7,156 					"/>
				</g>
				<g>
					<polygon fill="#645B55" points="132.7,157.7 131.7,156.3 130.7,157.7 131.7,159.2 					"/>
				</g>
				<g>
					<polygon fill="#645B55" points="134.7,160.9 133.7,159.5 132.7,160.9 133.7,162.4 					"/>
				</g>
				<g>
					<polygon fill="#645B55" points="136.7,164.2 135.7,162.7 134.7,164.2 135.7,165.6 					"/>
				</g>
				<g>
					<polygon fill="#645B55" points="138.7,167.4 137.7,166 136.7,167.4 137.7,168.8 					"/>
				</g>
				<g>
					<polygon fill="#645B55" points="140.8,170.6 139.8,169.2 138.7,170.6 139.8,172 					"/>
				</g>
				<g>
					<polygon fill="#645B55" points="142.8,173.8 141.8,172.4 140.8,173.8 141.8,175.3 					"/>
				</g>
			</g>
			<g>
				<polygon fill="#645B55" points="161.9,157.8 168,149.3 174.1,157.8 168,166.4 				"/>
			</g>
			<g>
				<g>
					<polygon fill="#645B55" points="167,138.6 168,137.2 169,138.6 168,140 					"/>
				</g>
				<g>
					<polygon fill="#645B55" points="169,141.8 170,140.3 171,141.8 170,143.2 					"/>
				</g>
				<g>
					<polygon fill="#645B55" points="171,145 172,143.5 173.1,145 172,146.4 					"/>
				</g>
				<g>
					<polygon fill="#645B55" points="173.1,148.2 174.1,146.7 175.1,148.2 174.1,149.6 					"/>
				</g>
				<g>
					<polygon fill="#645B55" points="175.1,151.3 176.1,149.9 177.1,151.3 176.1,152.8 					"/>
				</g>
				<g>
					<polygon fill="#645B55" points="177.1,154.5 178.1,153.1 179.1,154.5 178.1,156 					"/>
				</g>
				<g>
					<polygon fill="#645B55" points="179.1,157.7 180.1,156.3 181.1,157.7 180.1,159.2 					"/>
				</g>
				<g>
					<polygon fill="#645B55" points="177.1,160.9 178.1,159.5 179.1,160.9 178.1,162.4 					"/>
				</g>
				<g>
					<polygon fill="#645B55" points="175.1,164.2 176.1,162.7 177.1,164.2 176.1,165.6 					"/>
				</g>
				<g>
					<polygon fill="#645B55" points="173.1,167.4 174.1,166 175.1,167.4 174.1,168.8 					"/>
				</g>
				<g>
					<polygon fill="#645B55" points="171,170.6 172,169.2 173.1,170.6 172,172 					"/>
				</g>
				<g>
					<polygon fill="#645B55" points="169,173.8 170,172.4 171,173.8 170,175.3 					"/>
				</g>
				<g>
					<polygon fill="#645B55" points="167,177.1 168,175.6 169,177.1 168,178.5 					"/>
				</g>
				<g>
					<polygon fill="#645B55" points="167,141.8 166,140.3 165,141.8 166,143.2 					"/>
				</g>
				<g>
					<polygon fill="#645B55" points="165,145 164,143.5 163,145 164,146.4 					"/>
				</g>
				<g>
					<polygon fill="#645B55" points="163,148.2 162,146.7 160.9,148.2 162,149.6 					"/>
				</g>
				<g>
					<polygon fill="#645B55" points="160.9,151.3 159.9,149.9 158.9,151.3 159.9,152.8 					"/>
				</g>
				<g>
					<polygon fill="#645B55" points="158.9,154.5 157.9,153.1 156.9,154.5 157.9,156 					"/>
				</g>
				<g>
					<polygon fill="#645B55" points="156.9,157.7 155.9,156.3 154.9,157.7 155.9,159.2 					"/>
				</g>
				<g>
					<polygon fill="#645B55" points="158.9,160.9 157.9,159.5 156.9,160.9 157.9,162.4 					"/>
				</g>
				<g>
					<polygon fill="#645B55" points="160.9,164.2 159.9,162.7 158.9,164.2 159.9,165.6 					"/>
				</g>
				<g>
					<polygon fill="#645B55" points="163,167.4 162,166 160.9,167.4 162,168.8 					"/>
				</g>
				<g>
					<polygon fill="#645B55" points="165,170.6 164,169.2 163,170.6 164,172 					"/>
				</g>
				<g>
					<polygon fill="#645B55" points="167,173.8 166,172.4 165,173.8 166,175.3 					"/>
				</g>
			</g>
			<g>
				<polygon fill="#645B55" points="186.2,157.8 192.2,149.3 198.3,157.8 192.2,166.4 				"/>
			</g>
			<g>
				<g>
					<polygon fill="#645B55" points="191.2,138.6 192.2,137.2 193.2,138.6 192.2,140 					"/>
				</g>
				<g>
					<polygon fill="#645B55" points="193.2,141.8 194.2,140.3 195.3,141.8 194.2,143.2 					"/>
				</g>
				<g>
					<polygon fill="#645B55" points="195.3,145 196.3,143.5 197.3,145 196.3,146.4 					"/>
				</g>
				<g>
					<polygon fill="#645B55" points="197.3,148.2 198.3,146.7 199.3,148.2 198.3,149.6 					"/>
				</g>
				<g>
					<polygon fill="#645B55" points="199.3,151.3 200.3,149.9 201.3,151.3 200.3,152.8 					"/>
				</g>
				<g>
					<polygon fill="#645B55" points="201.3,154.5 202.3,153.1 203.3,154.5 202.3,156 					"/>
				</g>
				<g>
					<polygon fill="#645B55" points="203.3,157.7 204.3,156.3 205.3,157.7 204.3,159.2 					"/>
				</g>
				<g>
					<polygon fill="#645B55" points="201.3,160.9 202.3,159.5 203.3,160.9 202.3,162.4 					"/>
				</g>
				<g>
					<polygon fill="#645B55" points="199.3,164.2 200.3,162.7 201.3,164.2 200.3,165.6 					"/>
				</g>
				<g>
					<polygon fill="#645B55" points="197.3,167.4 198.3,166 199.3,167.4 198.3,168.8 					"/>
				</g>
				<g>
					<polygon fill="#645B55" points="195.3,170.6 196.3,169.2 197.3,170.6 196.3,172 					"/>
				</g>
				<g>
					<polygon fill="#645B55" points="193.2,173.8 194.2,172.4 195.3,173.8 194.2,175.3 					"/>
				</g>
				<g>
					<polygon fill="#645B55" points="191.2,177.1 192.2,175.6 193.2,177.1 192.2,178.5 					"/>
				</g>
				<g>
					<polygon fill="#645B55" points="191.2,141.8 190.2,140.3 189.2,141.8 190.2,143.2 					"/>
				</g>
				<g>
					<polygon fill="#645B55" points="189.2,145 188.2,143.5 187.2,145 188.2,146.4 					"/>
				</g>
				<g>
					<polygon fill="#645B55" points="187.2,148.2 186.2,146.7 185.2,148.2 186.2,149.6 					"/>
				</g>
				<g>
					<polygon fill="#645B55" points="185.2,151.3 184.2,149.9 183.1,151.3 184.2,152.8 					"/>
				</g>
				<g>
					<polygon fill="#645B55" points="183.1,154.5 182.1,153.1 181.1,154.5 182.1,156 					"/>
				</g>
				<g>
					<polygon fill="#645B55" points="181.1,157.7 180.1,156.3 179.1,157.7 180.1,159.2 					"/>
				</g>
				<g>
					<polygon fill="#645B55" points="183.1,160.9 182.1,159.5 181.1,160.9 182.1,162.4 					"/>
				</g>
				<g>
					<polygon fill="#645B55" points="185.2,164.2 184.2,162.7 183.1,164.2 184.2,165.6 					"/>
				</g>
				<g>
					<polygon fill="#645B55" points="187.2,167.4 186.2,166 185.2,167.4 186.2,168.8 					"/>
				</g>
				<g>
					<polygon fill="#645B55" points="189.2,170.6 188.2,169.2 187.2,170.6 188.2,172 					"/>
				</g>
				<g>
					<polygon fill="#645B55" points="191.2,173.8 190.2,172.4 189.2,173.8 190.2,175.3 					"/>
				</g>
			</g>
			<g>
				<polygon fill="#645B55" points="210.4,157.8 216.4,149.3 222.5,157.8 216.4,166.4 				"/>
			</g>
			<g>
				<g>
					<polygon fill="#645B55" points="215.4,138.6 216.4,137.2 217.4,138.6 216.4,140 					"/>
				</g>
				<g>
					<polygon fill="#645B55" points="217.4,141.8 218.5,140.3 219.5,141.8 218.5,143.2 					"/>
				</g>
				<g>
					<polygon fill="#645B55" points="219.5,145 220.5,143.5 221.5,145 220.5,146.4 					"/>
				</g>
				<g>
					<polygon fill="#645B55" points="221.5,148.2 222.5,146.7 223.5,148.2 222.5,149.6 					"/>
				</g>
				<g>
					<polygon fill="#645B55" points="223.5,151.3 224.5,149.9 225.5,151.3 224.5,152.8 					"/>
				</g>
				<g>
					<polygon fill="#645B55" points="225.5,154.5 226.5,153.1 227.5,154.5 226.5,156 					"/>
				</g>
				<g>
					<polygon fill="#645B55" points="227.5,157.7 228.6,156.3 229.6,157.7 228.6,159.2 					"/>
				</g>
				<g>
					<polygon fill="#645B55" points="225.5,160.9 226.5,159.5 227.5,160.9 226.5,162.4 					"/>
				</g>
				<g>
					<polygon fill="#645B55" points="223.5,164.2 224.5,162.7 225.5,164.2 224.5,165.6 					"/>
				</g>
				<g>
					<polygon fill="#645B55" points="221.5,167.4 222.5,166 223.5,167.4 222.5,168.8 					"/>
				</g>
				<g>
					<polygon fill="#645B55" points="219.5,170.6 220.5,169.2 221.5,170.6 220.5,172 					"/>
				</g>
				<g>
					<polygon fill="#645B55" points="217.4,173.8 218.5,172.4 219.5,173.8 218.5,175.3 					"/>
				</g>
				<g>
					<polygon fill="#645B55" points="215.4,177.1 216.4,175.6 217.4,177.1 216.4,178.5 					"/>
				</g>
				<g>
					<polygon fill="#645B55" points="215.4,141.8 214.4,140.3 213.4,141.8 214.4,143.2 					"/>
				</g>
				<g>
					<polygon fill="#645B55" points="213.4,145 212.4,143.5 211.4,145 212.4,146.4 					"/>
				</g>
				<g>
					<polygon fill="#645B55" points="211.4,148.2 210.4,146.7 209.4,148.2 210.4,149.6 					"/>
				</g>
				<g>
					<polygon fill="#645B55" points="209.4,151.3 208.4,149.9 207.4,151.3 208.4,152.8 					"/>
				</g>
				<g>
					<polygon fill="#645B55" points="207.4,154.5 206.4,153.1 205.3,154.5 206.4,156 					"/>
				</g>
				<g>
					<polygon fill="#645B55" points="205.3,157.7 204.3,156.3 203.3,157.7 204.3,159.2 					"/>
				</g>
				<g>
					<polygon fill="#645B55" points="207.4,160.9 206.4,159.5 205.3,160.9 206.4,162.4 					"/>
				</g>
				<g>
					<polygon fill="#645B55" points="209.4,164.2 208.4,162.7 207.4,164.2 208.4,165.6 					"/>
				</g>
				<g>
					<polygon fill="#645B55" points="211.4,167.4 210.4,166 209.4,167.4 210.4,168.8 					"/>
				</g>
				<g>
					<polygon fill="#645B55" points="213.4,170.6 212.4,169.2 211.4,170.6 212.4,172 					"/>
				</g>
				<g>
					<polygon fill="#645B55" points="215.4,173.8 214.4,172.4 213.4,173.8 214.4,175.3 					"/>
				</g>
			</g>
			<g>
				<path fill="#645B55" d="M238.4,162.8c1-3.8,2.2-7.6,3.9-11.2l-1.7-2.3l-6,8.5l3.6,5.2C238.3,162.9,238.4,162.9,238.4,162.8z"/>
			</g>
			<g>
				<g>
					<polygon fill="#645B55" points="239.6,138.6 240.6,137.2 241.7,138.6 240.6,140 					"/>
				</g>
				<g>
					<polygon fill="#645B55" points="241.7,141.8 242.7,140.3 243.7,141.8 242.7,143.2 					"/>
				</g>
				<g>
					<polygon fill="#645B55" points="243.7,145 244.7,143.5 245.7,145 244.7,146.4 					"/>
				</g>
				<g>
					<polygon fill="#645B55" points="239.6,141.8 238.6,140.3 237.6,141.8 238.6,143.2 					"/>
				</g>
				<g>
					<polygon fill="#645B55" points="237.6,145 236.6,143.5 235.6,145 236.6,146.4 					"/>
				</g>
				<g>
					<polygon fill="#645B55" points="235.6,148.2 234.6,146.7 233.6,148.2 234.6,149.6 					"/>
				</g>
				<g>
					<polygon fill="#645B55" points="233.6,151.3 232.6,149.9 231.6,151.3 232.6,152.8 					"/>
				</g>
				<g>
					<polygon fill="#645B55" points="231.6,154.5 230.6,153.1 229.6,154.5 230.6,156 					"/>
				</g>
				<g>
					<polygon fill="#645B55" points="229.6,157.7 228.6,156.3 227.5,157.7 228.6,159.2 					"/>
				</g>
				<g>
					<polygon fill="#645B55" points="231.6,160.9 230.6,159.5 229.6,160.9 230.6,162.4 					"/>
				</g>
				<g>
					<polygon fill="#645B55" points="233.6,164.2 232.6,162.7 231.6,164.2 232.6,165.6 					"/>
				</g>
			</g>
			<g>
				<g>
					<polygon fill="#645B55" points="118.6,177.1 119.6,175.6 120.6,177.1 119.6,178.5 					"/>
				</g>
			</g>
			<g>
				<g>
					<polygon fill="#645B55" points="142.8,177.1 143.8,175.6 144.8,177.1 143.8,178.5 					"/>
				</g>
				<g>
					<polygon fill="#645B55" points="144.8,180.2 145.8,178.8 146.8,180.2 145.8,181.7 					"/>
				</g>
				<g>
					<polygon fill="#645B55" points="146.8,183.4 147.8,182 148.8,183.4 147.8,184.9 					"/>
				</g>
				<g>
					<polygon fill="#645B55" points="148.8,186.6 149.8,185.2 150.8,186.6 149.8,188.1 					"/>
				</g>
				<g>
					<polygon fill="#645B55" points="142.8,180.2 141.8,178.8 140.8,180.2 141.8,181.7 					"/>
				</g>
				<g>
					<polygon fill="#645B55" points="140.8,183.4 139.8,182 138.7,183.4 139.8,184.9 					"/>
				</g>
			</g>
			<g>
				<path fill="#645B55" d="M167,192.2c1.4,0,2.8,0.1,4.2,0.1l-3.2-4.5l-3,4.3C165.6,192.1,166.3,192.1,167,192.2z"/>
			</g>
			<g>
				<g>
					<polygon fill="#645B55" points="167,177.1 168,175.6 169,177.1 168,178.5 					"/>
				</g>
				<g>
					<polygon fill="#645B55" points="169,180.2 170,178.8 171,180.2 170,181.7 					"/>
				</g>
				<g>
					<polygon fill="#645B55" points="171,183.4 172,182 173.1,183.4 172,184.9 					"/>
				</g>
				<g>
					<polygon fill="#645B55" points="173.1,186.6 174.1,185.2 175.1,186.6 174.1,188.1 					"/>
				</g>
				<g>
					<polygon fill="#645B55" points="175.1,189.8 176.1,188.4 177.1,189.8 176.1,191.3 					"/>
				</g>
				<g>
					<polygon fill="#645B55" points="167,180.2 166,178.8 165,180.2 166,181.7 					"/>
				</g>
				<g>
					<polygon fill="#645B55" points="165,183.4 164,182 163,183.4 164,184.9 					"/>
				</g>
				<g>
					<polygon fill="#645B55" points="163,186.6 162,185.2 160.9,186.6 162,188.1 					"/>
				</g>
				<g>
					<polygon fill="#645B55" points="160.9,189.8 159.9,188.4 158.9,189.8 159.9,191.3 					"/>
				</g>
			</g>
			<g>
				<g>
					<polygon fill="#645B55" points="191.2,177.1 192.2,175.6 193.2,177.1 192.2,178.5 					"/>
				</g>
				<g>
					<polygon fill="#645B55" points="193.2,180.2 194.2,178.8 195.3,180.2 194.2,181.7 					"/>
				</g>
				<g>
					<polygon fill="#645B55" points="195.3,183.4 196.3,182 197.3,183.4 196.3,184.9 					"/>
				</g>
				<g>
					<polygon fill="#645B55" points="191.2,180.2 190.2,178.8 189.2,180.2 190.2,181.7 					"/>
				</g>
				<g>
					<polygon fill="#645B55" points="189.2,183.4 188.2,182 187.2,183.4 188.2,184.9 					"/>
				</g>
				<g>
					<polygon fill="#645B55" points="187.2,186.6 186.2,185.2 185.2,186.6 186.2,188.1 					"/>
				</g>
				<g>
					<polygon fill="#645B55" points="185.2,189.8 184.2,188.4 183.1,189.8 184.2,191.3 					"/>
				</g>
			</g>
			<g>
				<g>
					<polygon fill="#645B55" points="215.4,177.1 216.4,175.6 217.4,177.1 216.4,178.5 					"/>
				</g>
			</g>
		</g>
		<path fill="#72D1CB" d="M167.9,13.5c-51.6,0-93.6,42-93.6,93.6c0,51.6,42,93.6,93.6,93.6s93.6-42,93.6-93.6
			C261.5,55.5,219.5,13.5,167.9,13.5z M167.9,191.6c-46.6,0-84.5-37.9-84.5-84.5c0-46.6,37.9-84.5,84.5-84.5
			c46.6,0,84.5,37.9,84.5,84.5C252.4,153.7,214.5,191.6,167.9,191.6z"/>
		<path fill="#72D1CB" d="M222.2,106.6c0,30.2-24.4,54.6-54.6,54.6c-30.1,0-54.6-24.4-54.6-54.6c0-30.1,24.4-54.6,54.6-54.6
			C197.8,52,222.2,76.5,222.2,106.6z"/>
		<g>
			<polygon fill="#FFFFFF" points="60.9,81.6 60.9,132.9 67.4,132.9 67.3,81.6 			"/>
			<polygon fill="#FFFFFF" points="69.8,81.6 69.9,132.9 76.4,132.9 76.3,81.6 			"/>
			<polygon fill="#FFFFFF" points="42.9,81.6 43,132.9 49.4,132.9 49.4,81.6 			"/>
			<polygon fill="#FFFFFF" points="51.9,81.6 51.9,132.9 58.4,132.9 58.4,81.6 			"/>
			<polygon fill="#FFFFFF" points="105.7,81.6 105.7,132.9 112.2,132.9 112.2,81.6 			"/>
			<polygon fill="#FFFFFF" points="96.7,81.6 96.8,132.9 103.3,132.9 103.2,81.6 			"/>
			<polygon fill="#FFFFFF" points="87.8,81.6 87.8,132.9 94.3,132.9 94.2,81.6 			"/>
			<polygon fill="#FFFFFF" points="78.8,81.6 78.8,132.9 85.3,132.9 85.3,81.6 			"/>
			<polygon fill="#FFFFFF" points="133.3,81.6 133.3,132.9 139.8,132.9 139.7,81.6 			"/>
			<polygon fill="#FFFFFF" points="142.2,81.6 142.3,132.9 148.7,132.9 148.7,81.6 			"/>
			<polygon fill="#FFFFFF" points="124.3,81.6 124.3,132.9 130.8,132.9 130.8,81.6 			"/>
			<polygon fill="#FFFFFF" points="115.3,81.6 115.4,132.9 121.8,132.9 121.8,81.6 			"/>
			<polygon fill="#FFFFFF" points="178.1,81.6 178.1,132.9 184.6,132.9 184.6,81.6 			"/>
			<polygon fill="#FFFFFF" points="169.1,81.6 169.2,132.9 175.6,132.9 175.6,81.6 			"/>
			<polygon fill="#FFFFFF" points="160.2,81.6 160.2,132.9 166.7,132.9 166.6,81.6 			"/>
			<polygon fill="#FFFFFF" points="151.2,81.6 151.2,132.9 157.7,132.9 157.7,81.6 			"/>
			<polygon fill="#FFFFFF" points="214.6,81.6 214.7,132.9 221.1,132.9 221.1,81.6 			"/>
			<polygon fill="#FFFFFF" points="205.6,81.6 205.7,132.9 212.2,132.9 212.1,81.6 			"/>
			<polygon fill="#FFFFFF" points="196.7,81.6 196.7,132.9 203.2,132.9 203.2,81.6 			"/>
			<polygon fill="#FFFFFF" points="187.7,81.6 187.7,132.9 194.2,132.9 194.2,81.6 			"/>
			<polygon fill="#FFFFFF" points="232.5,81.6 232.6,132.9 239.1,132.9 239,81.6 			"/>
			<polygon fill="#FFFFFF" points="250.5,81.6 250.5,132.9 257,132.9 257,81.6 			"/>
			<polygon fill="#FFFFFF" points="241.5,81.6 241.6,132.9 248,132.9 248,81.6 			"/>
			<polygon fill="#FFFFFF" points="223.6,81.6 223.6,132.9 230.1,132.9 230.1,81.6 			"/>
			<polygon fill="#FFFFFF" points="260.1,81.6 260.1,132.9 266.6,132.9 266.6,81.6 			"/>
			<polygon fill="#FFFFFF" points="269.1,81.6 269.1,132.9 275.6,132.9 275.6,81.6 			"/>
			<polygon fill="#FFFFFF" points="278,81.6 278.1,132.9 284.6,132.9 284.5,81.6 			"/>
			<polygon fill="#FFFFFF" points="287,81.6 287,132.9 293.5,132.9 293.5,81.6 			"/>
		</g>
		<rect x="42.2" y="83.8" fill="#E55C51" width="251.4" height="47"/>
		<g>
			<path fill="#FFFFFF" d="M111.3,126.9c-0.5,0.9-1,1.4-1.5,1.4c-2.2,0-3.8-2.6-4.8-7.9c-0.6-3.3-0.9-6.6-0.9-9.8c0-0.4,0-0.9,0-1.4
				c0-0.6,0-1.3,0.1-2.1c0-0.8,0.1-1.5,0.1-2.1c0-0.6,0-1.1,0-1.5v-0.7c-0.3,0.9-0.7,2.2-1.1,3.9c-0.5,1.7-1.1,3.9-1.9,6.5
				c-2.2,7.2-4.4,10.9-6.6,10.9c-2.7,0-4.6-3.7-5.8-11c0-0.3-0.1-0.7-0.1-1.3c-0.1-0.6-0.1-1.3-0.3-2.2c-0.1-0.1-0.4-2.4-0.9-6.8
				c-0.3,0.8-1,2.7-1.9,5.7c-3.6,11.8-7.8,17.6-12.7,17.6c-1.8,0-3.4-0.9-4.9-2.8l1-0.7c1,0.2,1.9,0.4,2.5,0.5
				c0.7,0.1,1.2,0.2,1.6,0.2c0.9,0,1.9-0.5,3-1.4v0.1c0.8-0.6,1.6-1.6,2.3-2.9c2-3.5,3.7-7.7,5.2-12.8c1.7-5.4,2.5-9.9,2.5-13.5
				c0-1.8,0.7-2.7,2-2.7c0.8,0,2,0.6,3.7,1.9c-0.4,1-0.6,3.4-0.6,7.2c0,2.7,0.1,5.2,0.2,7.6c0.2,2.3,0.4,4.6,0.8,6.6
				c0.8,4.9,1.7,7.3,2.8,7.3c0.7,0,2.2-3.1,4.3-9.3c1.9-5.5,3.2-10.3,4-14.6c0-0.2,0-0.6,0-1.2c0-0.6,0.1-1.3,0.1-2.2
				c0.1-1.3,0.4-2.1,1.1-2.4c3.1,0,4.7,0.6,4.9,1.9c-0.6,1.2-1.1,4.5-1.5,9.8c-0.4,4.8-0.6,8.3-0.6,10.6c0,8.2,1.2,12.6,3.6,13.2
				L111.3,126.9z"/>
			<path fill="#FFFFFF" d="M122,109.5c0,0.5-0.2,1.6-0.7,3.4c-0.8,3.3-1.4,5.6-2,6.9c-1.3,3.1-2.8,4.7-4.6,4.7
				c-1.6,0-2.8-0.8-3.6-2.3c-0.7-1.3-1-2.8-1-4.6c0-1.1,0-2.2,0.1-3.4c0.1-1.1,0.2-2.3,0.4-3.5c0.6-3.8,1.7-5.7,3.1-5.7
				c0.8,0,1.6,0.3,2.2,0.9c0.7,0.6,1,1.3,1,2.1c0,2.5-0.7,5.2-2.1,8.4c-0.3,0.8-0.7,1.4-1,2c-0.3,0.6-0.6,1.1-0.9,1.6
				c0,0.5,0.2,1,0.7,1.5c0.4,0.6,0.8,0.9,1.2,0.9c1.2,0,2.8-3.6,4.7-10.9c0.5-2.1,1-3.2,1.3-3.2C121.7,108.4,122,108.8,122,109.5z
				 M114.8,108.6c0-0.8-0.1-1.2-0.2-1.2c-0.1,0.1-0.1,0.2-0.1,0.3c-1,3.1-1.6,6.1-1.7,9.1c0.2-0.4,0.4-0.8,0.6-1.4
				c0.2-0.5,0.4-1.1,0.5-1.8C114.5,111.4,114.8,109.7,114.8,108.6z"/>
			<path fill="#FFFFFF" d="M127.2,124c-1.2,0-2.2-0.6-3-1.9c-0.3-0.5-0.5-1.6-0.5-3.3c0-0.4-0.1-0.7-0.1-1.1c0-0.3,0-0.7,0-0.9
				c0-0.2,0-0.6,0-1c0-0.4,0-1,0.1-1.7l0.1-3.9c0-0.4-0.5-0.9-1.4-1.6c-0.3,1.5-0.7,3-1.1,4.6v-0.1c-0.1,0.1-0.2,0.4-0.3,0.9
				c-0.1,0.1-0.2,0.3-0.4,0.8l-1.3-0.5c0-0.7,0.2-1.9,0.6-3.5c0.2-0.8,0.3-1.5,0.4-2.1c0.1-0.6,0.2-1.1,0.2-1.4
				c0-0.2-0.1-0.8-0.4-1.6c-0.2-0.7-0.4-1.3-0.4-1.8c0-2,0.6-3,1.7-3c1,0,1.5,0.7,1.5,2v0.4c0,0.6,0,0.9-0.1,1v0.2l-0.1,1.6
				c0,0.1,0.6,0.4,1.8,1.1c1.5,0.9,2.3,1.9,2.3,3c0,0.6,0,1.2-0.1,2c-0.1,0.8-0.1,1.8-0.3,2.9c-0.1,1.1-0.2,2-0.3,2.8
				c0,0.8-0.1,1.5-0.1,2c0,1.2,0.3,1.9,0.9,1.9c0.3,0,1.1-1.7,2.2-5.1c0.5-1.7,0.9-3,1.2-4.1c0.3-1.1,0.5-2,0.6-2.6
				c0.1-1,0.5-1.6,1.2-1.6c0.6,0,0.8,0.4,0.8,1.2c0,1.3-0.6,3.9-1.9,7.7C129.5,121.7,128.2,124,127.2,124z"/>
			<path fill="#FFFFFF" d="M137.9,124c-1.2,0-2.2-0.6-3-1.9c-0.3-0.5-0.5-1.6-0.5-3.3c0-0.4-0.1-0.7-0.1-1.1c0-0.3,0-0.7,0-0.9
				c0-0.2,0-0.6,0-1c0-0.4,0-1,0.1-1.7l0.1-3.9c0-0.4-0.5-0.9-1.4-1.6c-0.3,1.5-0.7,3-1.1,4.6v-0.1c-0.1,0.1-0.2,0.4-0.3,0.9
				c-0.1,0.1-0.2,0.3-0.4,0.8l-1.3-0.5c0-0.7,0.2-1.9,0.6-3.5c0.2-0.8,0.3-1.5,0.4-2.1c0.1-0.6,0.2-1.1,0.2-1.4
				c0-0.2-0.1-0.8-0.4-1.6c-0.2-0.7-0.4-1.3-0.4-1.8c0-2,0.5-3,1.6-3c1,0,1.5,0.7,1.5,2v0.4c0,0.6,0,0.9,0,1v0.2l-0.1,1.6
				c0,0.1,0.6,0.4,1.8,1.1c1.5,0.9,2.3,1.9,2.3,3c0,0.6,0,1.2-0.1,2c-0.1,0.8-0.2,1.8-0.3,2.9c-0.1,1.1-0.2,2-0.3,2.8
				c0,0.8-0.1,1.5-0.1,2c0,1.2,0.3,1.9,0.9,1.9c0.3,0,1.1-1.7,2.2-5.1c0.5-1.7,0.9-3,1.2-4.1c0.3-1.1,0.5-2,0.6-2.6
				c0.1-1,0.5-1.6,1.2-1.6c0.6,0,0.8,0.4,0.8,1.2c0,1.3-0.6,3.9-1.9,7.7C140.2,121.7,139,124,137.9,124z"/>
			<path fill="#FFFFFF" d="M139.7,117c0.4-1.3,0.8-2.5,1.1-3.7c0.3-1.1,0.5-2.2,0.7-3.2c0-2.6,0.6-3.9,1.9-3.9
				c0.8,0,1.2,0.4,1.2,1.1v0.2l-0.5,5.2c-0.1,1.4-0.2,2.6-0.3,3.6c-0.1,1-0.1,1.8-0.1,2.5c0,2.4,0.3,3.6,0.8,3.6
				c0.5,0,1.4-2.4,2.7-7.2v0.1c0.1-0.9,0.3-2.1,0.4-3.6c0.2-1.5,0.4-3.4,0.7-5.6c0.1-1.2,0.7-1.8,1.8-1.8h0.2c0.8,0,1.1,0.4,1.1,1.1
				c0,0.7-0.3,2.4-1,5.1c-0.3,1.1-0.4,3.6-0.4,7.6v2.5c0-0.2,0.1,1.3,0.2,4.4l0,1.6c0.7-0.2,1.1-0.3,1.3-0.3
				c1.1-0.3,1.9-0.5,2.3-0.5c1.8,0,2.7,0.5,2.7,1.6c0,0.2-0.1,0.5-0.3,0.8l-0.5,0.2c-1.2-0.2-2.1-0.4-2.8-0.4
				c-0.3,0-1.2,0.2-2.5,0.6c0,0.2,0,0.5,0,0.8c0,0.3,0,0.6,0.1,1c0,0.3,0,0.7,0.1,1c0,0.3,0,0.6,0,0.8c0,8-2.6,12.1-7.8,12.1
				c-1.6,0-3-0.6-4.1-1.8c-1.2-1.2-1.8-2.7-1.8-4.5c0-2.6,1.5-5,4.6-7.3c2.2-1.7,4.3-2.8,6.5-3.3c0-1.2-0.1-2.3-0.1-3.4
				c-0.1-1-0.1-2-0.3-2.8c-0.5,1.1-0.8,1.8-1.1,2.2c-0.6,0.7-1.3,1-2,1c-1.9,0-3-1.2-3.4-3.7c0-0.1-0.1-0.5-0.1-1.2
				c-1.1,3-2.1,4.6-3,4.6c-1.1,0-1.6-0.3-1.6-0.9c0-0.5,0.4-0.9,1.1-1.3C137.9,121.8,138.6,120.2,139.7,117z M148.1,129.5
				c-2.2,0.7-4.1,1.7-5.8,3.3c-1.9,1.8-2.9,3.7-2.9,5.7c0,1,0.3,1.8,0.9,2.6c0.6,0.8,1.3,1.1,2.1,1.1c2,0,3.5-1.2,4.5-3.6
				c0.8-1.9,1.2-3.9,1.2-6.1V129.5z"/>
			<path fill="#FFFFFF" d="M183.2,116.6c0.8,0.1,1.1,0.5,1.1,1.1c0,0.1-0.1,0.2-0.2,0.5c-0.1,0.3-0.2,0.7-0.4,1.1
				c-1.2,1.5-2.9,2.8-5.1,3.8c-2.2,0.9-4.3,1.4-6.4,1.4c-3.2,0-5.7-1.2-7.4-3.5c-1.5-2.1-2.3-4.9-2.3-8.2c0-3.7,0.7-7.8,2.1-12.5
				c1.8-5.7,4-9.4,6.6-11.1h0c0.8-0.5,1.8-0.7,3.2-0.7c2,0,3.8,0.5,5.5,1.6c1.3,0.8,2.2,1.8,2.6,2.8c0.3,0.7,0.5,2,0.5,3.9
				c0,0.7-0.1,1.4-0.2,2.3c-0.1,0.8-0.2,1.8-0.4,2.8c-0.6,3-1.3,4.5-2.2,4.5c-0.6,0-1.1-0.4-1.4-1.1c-0.3-0.6-0.5-1.3-0.5-1.9
				c0-0.9,0.3-2.5,0.9-4.8v0c0.6-2.2,0.8-3.7,0.8-4.7c0-0.9-0.6-1.7-1.9-2.3c-1.1-0.5-2.2-0.8-3.2-0.8c-2.3,0-4.4,2.7-6.3,8.1
				c-1.8,5.2-2.7,10.2-2.7,15.1c0,5.3,1.9,8,5.6,8c3.6,0,7-1.3,10.1-3.8l0.8-1.4L183.2,116.6z"/>
			<path fill="#FFFFFF" d="M198,116.1c-0.3,1.3-0.6,2.3-0.9,3.1c-0.2,0.8-0.4,1.4-0.6,1.8c-0.7,1.6-1.6,2.4-2.6,2.4
				c-2.3,0-3.5-2-3.6-6.1c0-0.4,0-1.1,0-2c0-0.9-0.1-1.9-0.1-3.3c-0.3,1.1-0.6,2.7-1.1,4.7c-0.5,2-1,4.3-1.7,7.1
				c-0.3,0.2-0.7,0.4-1.1,0.4c-1.6,0-2.4-2.8-2.4-8.5c0-2.7,0.4-6.8,1.1-12.3c0.4-2.7,0.7-5.1,0.9-7.2c0.2-2.1,0.3-3.8,0.3-5.1
				c0-0.2,0-0.4,0-0.6c0-0.2,0-0.5-0.1-0.8c0.4-0.8,1-1.2,1.9-1.2h0.2c1,0,1.5,0.5,1.5,1.4c0,0.5-0.1,1.3-0.4,2.3v-0.1
				c-0.1,0.4-0.2,0.8-0.3,1.1c-0.1,0.3-0.1,0.6-0.2,0.8c-0.8,5-1.3,9.4-1.7,12.9c-0.4,3.6-0.6,6.5-0.6,8.8h-0.8
				c0.6,0,0.9,0.3,0.9,0.8c0.1,0.3,0.1,0.8,0.2,1.4c1.2-3.9,2.3-8.3,3.2-13.1c0.2-1.2,0.7-1.8,1.5-1.8c0.4,0,1.3,0.6,2.6,1.7
				c-0.9,4.9-1.3,8.9-1.3,12.1c0,2.4,0.3,3.6,1,3.6c0.6,0,1.5-2.2,2.7-6.5c0.2-0.8,0.4-1.6,0.6-2.3c0.2-0.7,0.4-1.5,0.5-2.3
				c0.2-1,0.6-1.5,1.1-1.5c0.6,0,0.9,0.4,0.9,1.1C199.7,109.6,199.1,111.9,198,116.1z"/>
			<path fill="#FFFFFF" d="M204.7,124c-1.2,0-2.2-0.6-2.9-1.9c-0.3-0.5-0.5-1.6-0.5-3.3c0-0.4-0.1-0.7-0.1-1.1c0-0.3,0-0.7,0-0.9
				c0-0.2,0-0.6,0-1c0-0.4,0-1,0.1-1.7l0.1-3.9c0-0.4-0.5-0.9-1.5-1.6c-0.3,1.5-0.7,3-1.1,4.6v-0.1c-0.1,0.1-0.2,0.4-0.3,0.9
				c-0.1,0.1-0.2,0.3-0.4,0.8l-1.3-0.5c0-0.7,0.2-1.9,0.6-3.5c0.2-0.8,0.3-1.5,0.4-2.1c0.1-0.6,0.2-1.1,0.2-1.4
				c0-0.2-0.1-0.8-0.4-1.6c-0.2-0.7-0.4-1.3-0.4-1.8c0-2,0.6-3,1.7-3c1,0,1.5,0.7,1.5,2v0.4c0,0.6,0,0.9-0.1,1v0.2l-0.1,1.6
				c0,0.1,0.6,0.4,1.8,1.1c1.5,0.9,2.3,1.9,2.3,3c0,0.6,0,1.2-0.1,2c-0.1,0.8-0.1,1.8-0.3,2.9c-0.1,1.1-0.2,2-0.3,2.8
				c-0.1,0.8-0.1,1.5-0.1,2c0,1.2,0.3,1.9,0.9,1.9c0.3,0,1.1-1.7,2.2-5.1c0.5-1.7,0.9-3,1.2-4.1c0.3-1.1,0.5-2,0.6-2.6
				c0.1-1,0.5-1.6,1.2-1.6c0.6,0,0.8,0.4,0.8,1.2c0,1.3-0.6,3.9-1.9,7.7C207,121.7,205.7,124,204.7,124z"/>
			<path fill="#FFFFFF" d="M216.4,109.4c0,0.9-0.6,3.3-1.7,7.1c-0.8,2.7-1.3,4.3-1.6,5c-0.7,1.7-1.6,2.5-2.6,2.5c-2,0-3-1.8-3-5.4
				c0-1.2,0.1-3.1,0.3-5.6c0.2-2.5,0.3-4.4,0.3-5.6c0.4-0.4,0.9-0.7,1.4-0.7c1.1,0,1.7,0.4,1.7,1.2l-0.6,3.1
				c-0.3,1.5-0.5,2.9-0.6,4.2c-0.1,1.3-0.2,2.4-0.2,3.5c0,1.9,0.3,2.8,0.9,2.8c0.3,0,0.8-0.8,1.2-2.3l1.5-5c0.3-1.1,0.7-2.6,1.1-4.4
				c0.2-1.1,0.6-1.6,1.1-1.6C216.1,108.1,216.4,108.5,216.4,109.4z M212.5,96.2c0,1.6-0.5,2.4-1.6,2.4c-0.6,0-1.2-0.3-1.6-0.8
				c-0.5-0.5-0.7-1.1-0.7-1.8c0-0.5,0.2-0.9,0.7-1.4c0.4-0.5,0.8-0.7,1.3-0.7C211.9,93.8,212.5,94.6,212.5,96.2z"/>
			<path fill="#FFFFFF" d="M219.7,119.4c0,3.5-1.1,5.2-3.4,5.2c-0.4,0-0.8-0.1-1.2-0.3c-0.4-0.2-0.8-0.4-1.1-0.7
				c-0.3-0.3-0.6-0.7-0.8-1c-0.2-0.4-0.3-0.8-0.3-1.2c0-0.9,0.2-1.4,0.7-1.5c0.5,0,0.7,0.4,0.7,1.2c0.3,0.9,0.8,1.4,1.2,1.4
				c1.1,0,1.6-1.1,1.6-3.3c0-1-0.3-2.7-0.9-5.1c0-0.3-0.2-0.8-0.5-1.6c-0.7,3.2-1.5,4.8-2.2,4.8c0.1,0,0,0-0.1,0
				c-0.2,0-0.4,0-0.8-0.1c1.2-5.3,1.9-9.1,1.9-11.4c0-1.2,0.5-1.8,1.6-1.8c1.2,0,1.8,0.5,1.8,1.4c0,0.3-0.1,0.8-0.2,1.3
				c-0.1,0.6-0.2,1-0.2,1.3c0,1.2,0.3,3.1,1,5.6C219.3,116.4,219.7,118.3,219.7,119.4z"/>
			<path fill="#FFFFFF" d="M237.2,99.7c-0.3,0.3-1.2,0.6-2.8,0.8c-1.4,0.2-2.4,0.4-2.9,0.4c-0.8,0-1.6,0-2.3,0c-0.7,0-1.4,0-2.1,0
				l-2-0.1c-0.4,2.6-0.7,4.9-0.8,6.9c-0.2,2-0.3,3.6-0.3,4.9c0,1.4,0,2.6,0,3.5c0,0.9,0,1.6,0.1,2c0.2,1.7,0.5,2.6,0.9,2.6
				c1.1,0,2.3-3.3,3.8-10c0.4-1.8,0.9-2.7,1.3-2.7c0.6,0,1,0.4,1,1.3c0,1.3-0.6,3.7-1.8,7.2c-1.5,4.6-3,6.9-4.6,6.9
				c-1.4,0-2.4-1.3-3.1-3.8c-0.3-1.3-0.5-2.9-0.5-4.8c0-0.6,0.1-2.1,0.3-4.4c0.2-2.3,0.5-5.6,0.9-9.7c-0.2,0-0.7,0-1.3,0
				c-0.7,0-1.6,0-2.8-0.1l-1.5,0.5c-0.3-0.4-0.7-0.7-1.1-0.8c-0.6-0.2-0.8-0.6-0.8-1c0-0.6,0.4-0.8,1.1-0.8c0.9,0,1.9,0,3-0.1
				c1.1,0,2.3-0.1,3.6-0.2v0c0,0.2,0,0,0-0.5c0-0.5,0-1.4,0.1-2.6l-0.2-1c0.2-0.6,0.6-0.9,1.1-0.9c0.4,0,1.3,0.4,2.5,1.2v1.4
				c0,0.2-0.1,0.6-0.2,1c-0.1,0.4-0.2,0.9-0.3,1.5h1c0.7,0,1.2,0,1.8,0c0.5,0,1,0,1.3,0c0.2,0,0.9,0.1,2.2,0.1c1.2,0,3,0.1,5.3,0.1
				v0.8L237.2,99.7z"/>
			<path fill="#FFFFFF" d="M251.9,109.6c0,1.7-1,5.2-3.1,10.5c-1,2.6-2.2,3.9-3.6,3.9c-1.7,0-2.7-1.5-3-4.5c0-0.2-0.1-0.4-0.1-0.8
				c0-0.4,0-0.8,0-1.3c-0.2,0.6-0.4,1.2-0.5,1.8c-0.2,0.6-0.4,1.2-0.7,1.8c-0.8,2-1.7,3-2.7,3c-1.5,0-2.2-1.1-2.2-3.4
				c0,0.2,0.1-2.7,0.5-8.6c0,0.1-0.1,0.4-0.2,0.8c-0.1,0.4-0.2,1.1-0.4,1.9c-0.2,0.9-0.4,1.9-0.7,2.9c-0.2,1-0.5,2.2-0.8,3.4
				c-0.8,2.4-1.8,3.6-3,3.6c-1.4,0-2.1-1.7-2.1-5.1c0-0.3,0-0.8,0-1.2c0-0.5,0-1.1,0.1-1.8c0-0.7,0.1-1.3,0.1-1.8c0-0.5,0-0.9,0-1.2
				l-0.4-1.1v-0.5c0-0.1-0.1-0.2-0.1-0.4c0-2,0.5-3,1.7-3c1.2,0,1.8,0.8,1.8,2.4c0,0.4,0,0.9-0.1,1.5c0,0.6-0.1,1.3-0.3,2.1
				c-0.1,0.8-0.2,1.5-0.3,2.1c0,0.6-0.1,1.1-0.1,1.5c0,0.5,0,1,0,1.4c0,0.5,0,0.9,0.1,1.2c0.4-0.8,0.7-2.1,1-3.7
				c0.4-2.5,0.7-3.8,0.8-3.9c0.8-3.3,1.9-4.9,3.2-4.9c1.3,0,2,1.3,2,3.8c-0.2,1.3-0.3,2.5-0.4,3.5c-0.1,1.1-0.1,2.1-0.1,3v1.9
				c0.4,0,1.2-1.8,2.2-5.5c0.9-3.3,1.3-5.3,1.3-6v-0.2c0,0,0-0.1,0-0.2c0.1-0.7,0.6-1,1.5-1c0.6,0,1.4,0.3,2.5,1
				c-0.9,4.3-1.3,7.5-1.3,9.8c0,2.1,0.2,3.2,0.7,3.2c0.7,0,1.5-1.4,2.5-4.2c0.1-0.4,0.4-1.2,0.7-2.3c0.3-1.1,0.7-2.6,1.2-4.4v0.1
				c0-0.2,0.1-0.7,0.3-1.3c0.2-0.7,0.5-1,1-1C251.6,108.5,251.9,108.9,251.9,109.6z"/>
			<path fill="#FFFFFF" d="M257.4,124c-1.2,0-2.1-0.8-2.9-2.5c-0.8,2.2-1.9,3.4-3.3,3.4c-2,0-3.1-2.3-3.1-6.9v-0.7
				c0-1.5,0.4-3.7,1.1-6.5c1-3.7,1.9-5.5,2.8-5.5c1.7,0,2.7,0.5,3.2,1.4l0.8,1.6l1.9,0.6c-1.1,3.6-1.7,6.7-1.7,9.2v0.5
				c0,2,0.3,3,0.9,3c0.9,0,2.2-3.9,4-11.7c0.3-1,0.7-1.5,1.2-1.5c0.6,0,0.9,0.4,0.9,1.2c0,1.1-0.6,3.6-1.8,7.6
				C260,121.7,258.6,124,257.4,124z M254.5,110.7l-0.5-0.8c-0.2-1.3-0.4-2-0.7-2c-0.2,0-0.6,0.7-1,2l-0.1,0.3
				c-0.1,0.2-0.2,0.5-0.3,1.1c-0.1,0.5-0.3,1.2-0.6,2.1c-0.5,1.9-0.8,4.3-0.8,7.2c0,1.2,0.3,1.9,0.8,2c0.5-0.4,1-1.6,1.7-3.6
				c0.3-0.9,0.5-1.7,0.7-2.3c0.2-0.7,0.3-1.3,0.4-1.7L254.5,110.7z"/>
			<path fill="#FFFFFF" d="M266.3,119.4c0,3.5-1.1,5.2-3.4,5.2c-0.4,0-0.8-0.1-1.2-0.3c-0.4-0.2-0.8-0.4-1.1-0.7
				c-0.3-0.3-0.6-0.7-0.8-1c-0.2-0.4-0.3-0.8-0.3-1.2c0-0.9,0.2-1.4,0.7-1.5c0.5,0,0.7,0.4,0.7,1.2c0.3,0.9,0.8,1.4,1.2,1.4
				c1.1,0,1.6-1.1,1.6-3.3c0-1-0.3-2.7-0.9-5.1c0-0.3-0.2-0.8-0.5-1.6c-0.7,3.2-1.5,4.8-2.2,4.8c0.1,0,0,0-0.1,0
				c-0.1,0-0.4,0-0.8-0.1c1.2-5.3,1.9-9.1,1.9-11.4c0-1.2,0.5-1.8,1.6-1.8c1.2,0,1.8,0.5,1.8,1.4c0,0.3-0.1,0.8-0.2,1.3
				c-0.1,0.6-0.2,1-0.2,1.3c0,1.2,0.3,3.1,1,5.6C265.9,116.4,266.3,118.3,266.3,119.4z"/>
		</g>
		<g opacity="0.4">
			<linearGradient id="SVGID_1_" gradientUnits="userSpaceOnUse" x1="44.7076" y1="114.6969" x2="225.5293" y2="-8.0934">
				<stop  offset="0.1534" style="stop-color:#130C0E"/>
				<stop  offset="0.2293" style="stop-color:#1A1315"/>
				<stop  offset="0.3433" style="stop-color:#2E282A"/>
				<stop  offset="0.481" style="stop-color:#4F494B"/>
				<stop  offset="0.6374" style="stop-color:#7C7879"/>
				<stop  offset="0.8094" style="stop-color:#B6B4B5"/>
				<stop  offset="0.992" style="stop-color:#FCFCFC"/>
				<stop  offset="1" style="stop-color:#FFFFFF"/>
			</linearGradient>
			<path fill="url(#SVGID_1_)" d="M219.8,27.4L214,9.9l-17.1,6.8L186.8,1.3l-14.8,11L158.2,0l-11.5,14.4l-16.4-8.3L123,23l-18-3.7
				l-2.7,18.2l-18.4,1.1L86,56.9l-17.5,5.8l6.8,17.1L59.9,89.9l11,14.8l-12.2,13.7L73,129.9l-8.3,16.5l2.6,1.1
				C94.7,107,147,53.4,238.8,37.4l-0.7-12.1L219.8,27.4z"/>
		</g>
	</g>
</g>
</svg>
